<?xml version="1.0" standalone="no"?>
<!DOCTYPE svg PUBLIC "-//W3C//DTD SVG 1.1//EN" "http://www.w3.org/Graphics/SVG/1.1/DTD/svg11.dtd" >
<svg>
<metadata>
Created by FontForge 20120731 at Thu Apr 24 14:03:01 2014

</metadata>
<defs>
<font id="Circular-Medium" horiz-adv-x="805" >
  <font-face 
    font-family="Circular Medium"
    font-weight="500"
    font-stretch="normal"
    units-per-em="1000"
    panose-1="2 0 6 2 0 0 0 1 0 2"
    ascent="809"
    descent="-191"
    x-height="487"
    cap-height="709"
    bbox="-46 -238 1078 979"
    underline-thickness="80"
    underline-position="-115"
    unicode-range="U+0020-FEFF"
  />
<missing-glyph horiz-adv-x="574" 
d="M75 709h424v-709h-424v709zM403 96v517h-232v-517h232z" />
    <glyph glyph-name=".notdef" horiz-adv-x="574" 
d="M75 709h424v-709h-424v709zM403 96v517h-232v-517h232z" />
    <glyph glyph-name=".null" horiz-adv-x="0" 
 />
    <glyph glyph-name="nonmarkingreturn" horiz-adv-x="248" 
 />
    <glyph glyph-name="space" unicode=" " horiz-adv-x="248" 
 />
    <glyph glyph-name="exclam" unicode="!" horiz-adv-x="324" 
d="M204 210h-84l-29 499h141zM89 66q0 30 21 52t51 22q31 0 52.5 -22t21.5 -52t-21.5 -51.5t-52.5 -21.5q-30 0 -51 21.5t-21 51.5z" />
    <glyph glyph-name="quotedbl" unicode="&#x22;" horiz-adv-x="390" 
d="M37 591q0 30 19 49.5t49 19.5t49 -19.5t19 -49.5q0 -5 -0.5 -11.5t-2.5 -11.5l-45 -185h-41l-44 185q-1 4 -2 11t-1 12zM217 591q0 30 19 49.5t49 19.5t49 -19.5t19 -49.5q0 -5 -0.5 -11.5t-2.5 -11.5l-45 -185h-41l-44 185q-1 4 -2 11t-1 12z" />
    <glyph glyph-name="numbersign" unicode="#" horiz-adv-x="740" 
d="M94 487h144l35 161h95l-35 -161h136l35 161h96l-35 -161h130v-87h-149l-32 -149h132v-87h-150l-35 -164h-96l35 164h-136l-35 -164h-95l35 164h-124v87h142l32 149h-125v87zM282 251h136l32 149h-136z" />
    <glyph glyph-name="dollar" unicode="$" horiz-adv-x="595" 
d="M262 -117v105q-52 6 -91 26.5t-65.5 48.5t-41 61.5t-17.5 65.5l112 31q4 -43 28.5 -80t74.5 -49v184l-18 4q-80 18 -126 64t-46 120q0 37 14 70t39.5 59.5t60.5 43.5t76 23v106h92v-107q44 -7 76 -25t54 -41t34.5 -49.5t17.5 -51.5l-108 -34q-2 11 -6.5 24.5t-13.5 27
t-22 25t-32 18.5v-179l9 -2q90 -20 135 -71.5t45 -118.5q0 -34 -12 -66t-36 -58t-59.5 -44.5t-81.5 -24.5v-106h-92zM189 471q0 -27 17.5 -48.5t55.5 -29.5v164q-36 -9 -54.5 -33t-18.5 -53zM427 176q0 27 -17.5 48t-55.5 32v-164q38 8 55.5 31.5t17.5 52.5z" />
    <glyph glyph-name="percent" unicode="%" horiz-adv-x="837" 
d="M142 496q0 -32 20.5 -53t50.5 -21t50 21t20 53t-20 52.5t-50 20.5t-50.5 -20.5t-20.5 -52.5zM49 496q0 34 13 63t35.5 51t52.5 34.5t63 12.5t62.5 -12.5t52 -34.5t36 -51t13.5 -63t-13.5 -63.5t-36 -51t-52.5 -33.5t-63 -12t-62.5 12.5t-52 34t-35.5 50.5t-13 63z
M560 151q0 -32 20.5 -53t50.5 -21t50 21t20 53t-20 52.5t-50 20.5t-50.5 -20.5t-20.5 -52.5zM467 151q0 34 13 63t35.5 51t52.5 34.5t63 12.5t62.5 -12.5t52 -34.5t36 -51t13.5 -63t-13.5 -63.5t-36 -51t-52.5 -33.5t-63 -12t-62.5 12.5t-52 34t-35.5 50.5t-13 63zM139 0
l462 648h104l-461 -648h-105z" />
    <glyph glyph-name="ampersand" unicode="&#x26;" horiz-adv-x="708" 
d="M473 84q-42 -45 -89 -71t-105 -26q-51 0 -90.5 16t-66.5 42t-40.5 59.5t-13.5 68.5q0 34 9 61t25 50.5t38.5 43.5t50.5 41l7 5l-12 13q-13 13 -27 30t-26 36.5t-20 42t-8 47.5q0 44 16.5 77.5t43.5 56.5t61 35t69 12q42 0 77.5 -12.5t61.5 -35.5t40.5 -55.5t14.5 -72.5
q0 -26 -8.5 -49t-22.5 -43t-32 -37t-37 -31l-31 -23l118 -123l169 182v-150l-97 -107l160 -167h-155zM281 92q35 0 63 19t55 48l1 1l-131 139l-24 -18q-26 -19 -42 -42t-16 -58q0 -17 6.5 -32.5t18.5 -28.5t29.5 -20.5t39.5 -7.5zM219 550q0 -26 14 -47.5t33 -41.5l20 -22
l41 30q28 21 38 41t10 40q0 32 -22 54t-57 22q-14 0 -27.5 -4.5t-24.5 -14t-18 -24t-7 -33.5z" />
    <glyph glyph-name="quotesingle" unicode="'" horiz-adv-x="210" 
d="M37 591q0 30 19 49.5t49 19.5t49 -19.5t19 -49.5q0 -5 -0.5 -11.5t-2.5 -11.5l-45 -185h-41l-44 185q-1 4 -2 11t-1 12z" />
    <glyph glyph-name="parenleft" unicode="(" horiz-adv-x="317" 
d="M48 320q0 84 15.5 155t43 131t64 110t78.5 92l68 -62q-78 -86 -124.5 -189t-46.5 -237t46.5 -238t124.5 -189l-68 -61q-42 42 -78.5 92t-64 110t-43 131t-15.5 155z" />
    <glyph glyph-name="parenright" unicode=")" horiz-adv-x="317" 
d="M269 320q0 -84 -15.5 -155t-42.5 -131t-64 -110t-79 -92l-68 61q79 85 125 189t46 238t-46 237t-125 189l68 62q42 -42 79 -92t64 -110t42.5 -131t15.5 -155z" />
    <glyph glyph-name="asterisk" unicode="*" horiz-adv-x="448" 
d="M271 579l119 40l29 -86l-121 -40l78 -102l-73 -54l-80 105l-75 -104l-74 54l76 101l-121 40l29 86l119 -41v131h94v-130z" />
    <glyph glyph-name="plus" unicode="+" horiz-adv-x="579" 
d="M240 339v195h99v-195h188v-95h-188v-197h-99v197h-188v95h188z" />
    <glyph glyph-name="comma" unicode="," horiz-adv-x="304" 
d="M65 73q0 32 24 54t59 22q40 0 65.5 -29t25.5 -77q0 -53 -16 -90.5t-40 -62.5t-53 -38.5t-54 -16.5v59q17 4 33 14t28.5 24.5t20 32t7.5 37.5q-3 -2 -8.5 -3.5t-15.5 -1.5q-33 0 -54.5 20.5t-21.5 55.5z" />
    <glyph glyph-name="hyphen" unicode="-" horiz-adv-x="372" 
d="M45 241v103h282v-103h-282z" />
    <glyph glyph-name="period" unicode="." horiz-adv-x="296" 
d="M67 75q0 34 23.5 58t57.5 24t58 -24t24 -58t-24 -57.5t-58 -23.5t-57.5 23.5t-23.5 57.5z" />
    <glyph glyph-name="slash" unicode="/" horiz-adv-x="456" 
d="M107 -5h-107l349 719h107z" />
    <glyph glyph-name="zero" unicode="0" horiz-adv-x="619" 
d="M164 324q0 -62 11.5 -108.5t34.5 -76.5q17 -22 41 -35t59 -13t59 13t41 35q23 30 34 76.5t11 108.5t-11 108.5t-34 76.5q-17 22 -41 35t-59 13t-59 -13t-41 -35q-24 -30 -35 -76.5t-11 -108.5zM45 324q0 65 12.5 124t45.5 109q32 48 83 77t124 29t123.5 -29t82.5 -77
q33 -50 45.5 -109t12.5 -124t-12.5 -124t-45.5 -109q-32 -48 -82.5 -77t-123.5 -29t-124 29t-83 77q-33 50 -45.5 109t-12.5 124z" />
    <glyph glyph-name="one" unicode="1" horiz-adv-x="376" 
d="M185 0v444h-157v82q70 2 115 36.5t56 85.5h104v-648h-118z" />
    <glyph glyph-name="two" unicode="2" horiz-adv-x="537" 
d="M42 413q-1 7 -2 17t-1 20q0 42 15.5 80.5t45 68t72.5 47t98 17.5q54 0 96 -16.5t71.5 -44t45 -64.5t15.5 -79q0 -63 -33 -114t-92 -87l-126 -78q-23 -14 -41 -32t-25 -42h321v-106h-469q1 42 9 79t26 70.5t47.5 63t71.5 55.5l107 67q44 27 63.5 57t19.5 65q0 20 -7 38
t-20.5 32t-34 22.5t-47.5 8.5q-57 0 -85 -34.5t-28 -85.5q0 -8 1 -16.5t2 -16.5z" />
    <glyph glyph-name="three" unicode="3" horiz-adv-x="551" 
d="M164 383l179 160h-295v105h450v-100l-176 -154q36 -1 71 -14t62.5 -38t44 -61.5t16.5 -83.5q0 -42 -16.5 -80t-47.5 -67.5t-76 -47t-103 -17.5q-56 0 -100.5 17t-76 45t-49.5 65t-21 78l117 24q1 -28 11 -51.5t27.5 -40t40.5 -25.5t50 -9q30 0 52.5 9t38.5 24t24 35t8 42
q0 28 -10 48.5t-26.5 33.5t-37 19t-41.5 6q-23 0 -38 -3.5t-23 -7.5z" />
    <glyph glyph-name="four" unicode="4" horiz-adv-x="587" 
d="M33 272l276 376h154v-400h109v-106h-109v-142h-118v142h-312v130zM345 527l-204 -279h204v279z" />
    <glyph glyph-name="five" unicode="5" horiz-adv-x="551" 
d="M145 208q4 -52 39 -86.5t92 -34.5q25 0 47.5 8.5t39.5 23.5t26.5 37t9.5 49q0 30 -10.5 52.5t-27.5 37.5t-39.5 22.5t-47.5 7.5q-35 0 -63 -12.5t-45 -32.5l-113 41l80 327h355v-105h-274l-40 -164q21 22 55 33.5t69 11.5q48 0 89 -14.5t70.5 -42.5t46 -68t16.5 -91
q0 -46 -17 -86.5t-48.5 -71t-77 -48.5t-101.5 -18q-53 0 -96.5 16t-75 43t-50.5 62.5t-22 73.5z" />
    <glyph glyph-name="six" unicode="6" horiz-adv-x="581" 
d="M498 533q-18 10 -44.5 18t-66.5 8q-46 0 -84.5 -14.5t-67.5 -41.5t-47 -65.5t-22 -85.5q26 39 69.5 58t95.5 19q48 0 88.5 -15.5t70 -44t45.5 -69t16 -90.5q0 -51 -19.5 -92.5t-52.5 -71t-78 -45.5t-96 -16q-62 0 -110 23.5t-81 64.5t-50.5 96t-17.5 117q0 88 26 158
t72.5 118.5t110.5 74.5t139 26q45 0 81 -9t57 -23zM179 208q0 -28 10.5 -50.5t28 -38t40 -24t47.5 -8.5t48 8.5t40.5 24t27.5 38t10 50.5t-10 50.5t-27.5 38.5t-40.5 24t-48 8q-26 0 -48.5 -8t-40 -24t-27.5 -38.5t-10 -50.5z" />
    <glyph glyph-name="seven" unicode="7" horiz-adv-x="494" 
d="M489 543q-14 -11 -36.5 -32.5t-50 -54t-56 -76.5t-53.5 -100.5t-44 -126.5t-26 -153h-124q5 68 18.5 127t32.5 110t41 93.5t45 76.5q53 79 117 136h-348v105h484v-105z" />
    <glyph glyph-name="eight" unicode="8" horiz-adv-x="565" 
d="M282 378q49 1 78 27.5t29 67.5q0 37 -28.5 64.5t-78.5 27.5t-78 -27.5t-28 -64.5q0 -41 29 -67.5t77 -27.5zM282 86q60 0 91 29.5t31 69.5t-31 70t-91 30q-59 0 -90 -30t-31 -70t31 -69.5t90 -29.5zM282 -15q-56 0 -100 14t-75.5 39.5t-48 59.5t-16.5 75q0 56 34 98.5
t86 60.5q-47 17 -76 58.5t-29 89.5q0 40 17 74t47 58t71 37.5t90 13.5t90.5 -13.5t71.5 -37.5t47 -58t17 -74q0 -24 -7.5 -46.5t-21.5 -42.5t-33.5 -35t-42.5 -24q25 -9 47 -24.5t38.5 -36t25.5 -45.5t9 -53q0 -41 -16.5 -75t-48 -59.5t-76 -39.5t-100.5 -14z" />
    <glyph glyph-name="nine" unicode="9" horiz-adv-x="582" 
d="M88 120q19 -12 51.5 -21t64.5 -9q51 0 90 14.5t66 41.5t42 64.5t17 83.5q-18 -32 -59 -53.5t-99 -21.5q-44 0 -84.5 14.5t-71.5 42.5t-49.5 68.5t-18.5 92.5q0 50 19 91.5t52 71.5t77.5 46.5t95.5 16.5t97 -18t81.5 -55.5t56.5 -94.5t21 -135q0 -88 -21 -157.5
t-62.5 -118t-104 -74t-144.5 -25.5q-40 0 -82.5 10t-67.5 27zM403 441q0 27 -10 49t-27.5 38t-40 24.5t-46.5 8.5q-25 0 -47.5 -8.5t-39.5 -24t-27 -38t-10 -49.5q0 -29 10 -51t27 -38t39.5 -24t47.5 -8q24 0 46.5 8.5t40 24t27.5 38t10 50.5z" />
    <glyph glyph-name="colon" unicode=":" horiz-adv-x="302" 
d="M71 74q0 34 23.5 57.5t57.5 23.5q33 0 57 -23.5t24 -57.5q0 -33 -24 -56.5t-57 -23.5q-34 0 -57.5 23.5t-23.5 56.5zM70 412q0 34 23.5 57.5t57.5 23.5q33 0 57 -23.5t24 -57.5q0 -33 -24 -56.5t-57 -23.5q-34 0 -57.5 23.5t-23.5 56.5z" />
    <glyph glyph-name="semicolon" unicode=";" horiz-adv-x="307" 
d="M71 69q0 31 22.5 52t56.5 21q38 0 62 -28t24 -73q0 -50 -15 -86t-38 -59.5t-50.5 -36.5t-51.5 -16v56q16 4 31.5 13.5t27 23.5t19 30.5t7.5 35.5q-3 -2 -8.5 -3.5t-14.5 -1.5q-31 0 -51.5 19.5t-20.5 52.5zM70 412q0 34 23.5 57.5t57.5 23.5q33 0 57 -23.5t24 -57.5
q0 -33 -24 -56.5t-57 -23.5q-34 0 -57.5 23.5t-23.5 56.5z" />
    <glyph glyph-name="less" unicode="&#x3c;" horiz-adv-x="490" 
d="M35 338l422 212v-111l-302 -147l302 -148v-111l-422 211v94z" />
    <glyph glyph-name="equal" unicode="=" horiz-adv-x="598" 
d="M62 343v94h475v-94h-475zM62 146v95h475v-95h-475z" />
    <glyph glyph-name="greater" unicode="&#x3e;" horiz-adv-x="490" 
d="M455 244l-422 -211v110l304 148l-304 147v112l422 -212v-94z" />
    <glyph glyph-name="question" unicode="?" horiz-adv-x="520" 
d="M195 210q-1 10 -1.5 18.5t-0.5 19.5q0 45 18.5 82t62.5 69l46 33q25 18 36 39.5t11 47.5q0 19 -6.5 37.5t-20 32.5t-34 22.5t-47.5 8.5q-28 0 -49 -10t-35.5 -26t-21.5 -36.5t-7 -41.5q0 -11 1.5 -24t4.5 -21l-113 8q-6 21 -6 46q0 37 14 74.5t42.5 67.5t70.5 48.5
t99 18.5q55 0 98 -17t71.5 -45t43.5 -64t15 -74q0 -60 -28 -102.5t-72 -73.5l-43 -30q-50 -35 -50 -95v-5t1 -8h-100zM173 66q0 30 21 52t52 22q30 0 51.5 -22t21.5 -52t-21.5 -51.5t-51.5 -21.5q-31 0 -52 21.5t-21 51.5z" />
    <glyph glyph-name="at" unicode="@" horiz-adv-x="826" 
d="M594 138q-38 0 -64 16.5t-34 45.5q-20 -32 -52 -48t-65 -16t-61 12.5t-48 35t-31.5 54.5t-11.5 70q0 49 16 91t43 73t63 48t76 17q30 0 60 -15t41 -46l9 48h88l-53 -248q-1 -4 -2 -10t-1 -11q0 -15 7.5 -26.5t26.5 -11.5q20 0 38.5 14t33 38.5t23 57t8.5 69.5
q0 54 -19.5 99t-55 77.5t-85.5 51t-110 18.5q-65 0 -119.5 -22.5t-95 -63t-63 -97.5t-22.5 -127q0 -64 21 -118.5t60.5 -94.5t97 -62.5t130.5 -22.5q51 0 100 15.5t93 48.5l45 -61q-21 -20 -49.5 -35.5t-60 -26t-64.5 -16.5t-64 -6q-88 0 -161.5 27.5t-127 77t-83 119.5
t-29.5 155q0 87 31 159.5t84 124t124.5 80t151.5 28.5q76 0 141.5 -25t113.5 -68.5t75.5 -103.5t27.5 -130q0 -57 -16 -104t-43.5 -81.5t-63 -54t-74.5 -19.5zM504 368q0 40 -19 62.5t-56 22.5q-26 0 -46 -12.5t-34 -32t-21.5 -44.5t-7.5 -49q0 -41 18 -68.5t59 -27.5
q23 0 42 11t33.5 31t22.5 47t9 60z" />
    <glyph glyph-name="A" unicode="A" horiz-adv-x="711" 
d="M503 178h-300l-66 -178h-127l276 709h139l276 -709h-131zM245 289h216l-108 290z" />
    <glyph glyph-name="B" unicode="B" horiz-adv-x="607" 
d="M329 709q51 0 91 -14t68 -39.5t42.5 -60.5t14.5 -77q0 -57 -29.5 -96.5t-75.5 -56.5q57 -15 92 -60.5t35 -108.5q0 -43 -16 -79t-44.5 -62t-69.5 -40.5t-90 -14.5h-262v709h244zM313 409q53 0 82.5 27t29.5 72t-30 72t-85 27h-106v-198h109zM326 102q54 0 86.5 27
t32.5 75q0 46 -29.5 75t-85.5 29h-126v-206h122z" />
    <glyph glyph-name="C" unicode="C" horiz-adv-x="758" 
d="M400 -15q-72 0 -136.5 25t-114 72.5t-78.5 116t-29 155.5t30 155.5t79.5 116t114 73t133.5 25.5q67 0 121 -18.5t94 -50t66 -73.5t38 -88l-113 -38q-8 32 -24.5 60.5t-42 49.5t-60 33t-79.5 12q-44 0 -86 -16t-75 -48t-53 -80.5t-20 -112.5q0 -62 19.5 -109.5t52.5 -79.5
t75.5 -48.5t87.5 -16.5t80 13t61 35t43.5 50t26.5 58l110 -36q-12 -45 -38 -87.5t-66.5 -75t-94.5 -52.5t-122 -20z" />
    <glyph glyph-name="D" unicode="D" horiz-adv-x="722" 
d="M331 110q46 0 87 15t71.5 45t48.5 75.5t18 107.5t-17.5 108.5t-48 77t-71.5 45.5t-87 15h-127v-489h126zM85 0v709h251q72 0 135 -23.5t109.5 -69t73.5 -112t27 -151.5t-27 -151t-74 -111t-110 -68t-135 -23h-250z" />
    <glyph glyph-name="E" unicode="E" horiz-adv-x="582" 
d="M85 0v709h438v-112h-318v-188h288v-109h-288v-188h318v-112h-438z" />
    <glyph glyph-name="F" unicode="F" horiz-adv-x="557" 
d="M85 0v709h441v-113h-321v-199h288v-111h-288v-286h-120z" />
    <glyph glyph-name="G" unicode="G" horiz-adv-x="774" 
d="M617 0l-9 90q-12 -20 -31.5 -38.5t-46.5 -33.5t-62 -24t-77 -9q-69 0 -132.5 25t-111.5 72.5t-76.5 116t-28.5 156.5q0 87 30 156t79.5 116t114 72t133.5 25q64 0 117 -17.5t93.5 -47t68 -68.5t41.5 -83l-113 -43q-9 30 -26.5 57t-43.5 47t-60.5 32t-76.5 12
q-43 0 -85 -15.5t-75.5 -47.5t-54 -80.5t-20.5 -114.5q0 -65 19.5 -113.5t52 -81t74.5 -49t88 -16.5q54 0 91.5 16.5t61.5 40.5t36 51.5t14 50.5h-234v105h347v-359h-97z" />
    <glyph glyph-name="H" unicode="H" horiz-adv-x="744" 
d="M538 0v303h-333v-303h-120v709h120v-293h333v293h121v-709h-121z" />
    <glyph glyph-name="I" unicode="I" horiz-adv-x="292" 
d="M85 0v709h122v-709h-122z" />
    <glyph glyph-name="J" unicode="J" horiz-adv-x="547" 
d="M20 260l117 24v-66q0 -63 31 -91.5t78 -28.5q48 0 76 30.5t28 84.5v496h120v-493q0 -47 -16 -89t-45 -73.5t-70 -50t-92 -18.5q-52 0 -94 16.5t-71.5 46.5t-45.5 72t-16 94v46z" />
    <glyph glyph-name="K" unicode="K" horiz-adv-x="685" 
d="M299 307l-94 -103v-204h-120v709h120v-340l305 340h158l-287 -313l290 -396h-151z" />
    <glyph glyph-name="L" unicode="L" horiz-adv-x="555" 
d="M85 0v709h120v-595h325v-114h-445z" />
    <glyph glyph-name="M" unicode="M" horiz-adv-x="950" 
d="M746 0v522l-221 -522h-104l-219 520v-520h-117v709h160l230 -541l227 541h163v-709h-119z" />
    <glyph glyph-name="N" unicode="N" horiz-adv-x="765" 
d="M555 0l-350 537v-537h-120v709h153l322 -503v503h120v-709h-125z" />
    <glyph glyph-name="O" unicode="O" 
d="M165 355q0 -64 20.5 -112t53.5 -80t75.5 -48t87.5 -16t88 16t76 48t53.5 80t20.5 112t-20.5 112t-53.5 80t-76 48t-88 16t-87.5 -16t-75.5 -48t-53.5 -80t-20.5 -112zM42 355q0 87 30 155.5t80 116t115 72.5t135 25t135 -25t115 -72.5t80.5 -116t30.5 -155.5t-30.5 -156
t-80.5 -116.5t-115 -72.5t-135 -25t-135 25t-115 72.5t-80 116.5t-30 156z" />
    <glyph glyph-name="P" unicode="P" horiz-adv-x="602" 
d="M330 383q57 0 89.5 29t32.5 80t-32.5 81t-89.5 30h-125v-220h125zM205 277v-277h-120v709h263q51 0 92.5 -16.5t71.5 -45t46 -68.5t16 -86q0 -47 -16 -86.5t-46 -68.5t-71.5 -45t-92.5 -16h-143z" />
    <glyph glyph-name="Q" unicode="Q" 
d="M42 355q0 87 30 155.5t80 116t115 72.5t135 25t135 -25t115 -72.5t80.5 -116t30.5 -155.5q0 -79 -25 -142.5t-67 -110.5l84 -94l-81 -69l-87 95q-42 -24 -89 -36.5t-96 -12.5q-70 0 -135 25t-115 72.5t-80 116.5t-30 156zM165 355q0 -64 20.5 -112t53.5 -80t75.5 -48
t87.5 -16q27 0 54 5.5t52 17.5l-117 130l82 70l118 -131q23 31 36 71.5t13 92.5q0 64 -20.5 112t-53.5 80t-76 48t-88 16t-87.5 -16t-75.5 -48t-53.5 -80t-20.5 -112z" />
    <glyph glyph-name="R" unicode="R" horiz-adv-x="622" 
d="M294 280h-88v-280h-121v709h272q51 0 92.5 -16.5t70 -46t44 -68.5t15.5 -84q0 -76 -42.5 -130t-117.5 -72l160 -292h-136zM335 386q56 0 89 29.5t33 78.5q0 50 -33 79.5t-89 29.5h-129v-217h129z" />
    <glyph glyph-name="S" unicode="S" horiz-adv-x="599" 
d="M443 509q-3 16 -11.5 35.5t-25 35.5t-41.5 27t-61 11q-27 0 -49.5 -8.5t-38.5 -22.5t-25 -32.5t-9 -38.5q0 -34 20.5 -58t62.5 -33l102 -21q94 -19 143 -74t49 -130q0 -41 -16.5 -80t-48.5 -69t-78.5 -48t-107.5 -18q-68 0 -117.5 19.5t-83 51t-51.5 70.5t-22 77l112 32
q3 -28 14 -53.5t31.5 -45t49.5 -31.5t67 -12q64 0 96.5 28t32.5 70q0 35 -24.5 60.5t-70.5 35.5l-100 21q-81 17 -130.5 68t-49.5 131q0 45 19 84.5t52 69t76.5 46.5t93.5 17q63 0 107 -17t73.5 -43.5t45.5 -58.5t22 -62z" />
    <glyph glyph-name="T" unicode="T" horiz-adv-x="607" 
d="M363 596v-596h-120v596h-230v113h581v-113h-231z" />
    <glyph glyph-name="U" unicode="U" horiz-adv-x="683" 
d="M341 -15q-56 0 -104 17t-83.5 50t-56 82t-20.5 113v462h119v-455q0 -75 38.5 -115t106.5 -40q69 0 107 40t38 115v455h120v-462q0 -64 -20.5 -113t-56 -82t-84 -50t-104.5 -17z" />
    <glyph glyph-name="V" unicode="V" horiz-adv-x="674" 
d="M537 709h127l-268 -709h-122l-264 709h130l198 -552z" />
    <glyph glyph-name="W" unicode="W" horiz-adv-x="1017" 
d="M880 709h124l-199 -709h-124l-172 536l-172 -536h-123l-201 709h126l142 -518l166 518h125l169 -522z" />
    <glyph glyph-name="X" unicode="X" horiz-adv-x="646" 
d="M395 354l235 -354h-144l-165 259l-167 -259h-141l237 355l-235 354h144l165 -260l166 260h141z" />
    <glyph glyph-name="Y" unicode="Y" horiz-adv-x="638" 
d="M10 709h142l170 -297l171 297h135l-250 -409v-300h-120v300z" />
    <glyph glyph-name="Z" unicode="Z" horiz-adv-x="636" 
d="M42 0v118l393 478h-382v113h537v-114l-398 -481h403v-114h-553z" />
    <glyph glyph-name="bracketleft" unicode="[" horiz-adv-x="304" 
d="M85 -157v956h214v-90h-116v-775h116v-91h-214z" />
    <glyph glyph-name="backslash" unicode="\" horiz-adv-x="457" 
d="M0 714h110l347 -719h-109z" />
    <glyph glyph-name="bracketright" unicode="]" horiz-adv-x="304" 
d="M5 -157v91h116v775h-116v90h214v-956h-214z" />
    <glyph glyph-name="asciicircum" unicode="^" horiz-adv-x="526" 
d="M393 352l-129 244l-130 -244h-114l196 358h94l196 -358h-113z" />
    <glyph glyph-name="underscore" unicode="_" horiz-adv-x="531" 
d="M10 -96v96h511v-96h-511z" />
    <glyph glyph-name="grave" unicode="`" horiz-adv-x="285" 
d="M29 696h139l88 -148h-95z" />
    <glyph glyph-name="a" unicode="a" horiz-adv-x="532" 
d="M45 132q0 33 11.5 58t31 43.5t46.5 29.5t58 16l125 19q21 3 28.5 12.5t7.5 22.5q0 31 -22 52.5t-70 21.5q-46 0 -71 -25.5t-29 -62.5l-106 24q3 31 19 60t42 51t62.5 35t81.5 13q56 0 95.5 -15t64 -40t36 -58t11.5 -69v-242q0 -33 2.5 -53.5t3.5 -24.5h-108q-1 2 -3 17.5
t-2 44.5q-17 -28 -54 -52.5t-96 -24.5q-38 0 -68.5 12t-52 32.5t-33 47t-11.5 55.5zM232 76q24 0 46 6.5t38.5 21t26.5 38.5t10 60v22l-127 -19q-27 -5 -46 -20.5t-19 -45.5q0 -25 18 -44t53 -19z" />
    <glyph glyph-name="b" unicode="b" horiz-adv-x="604" 
d="M75 0v724h114v-297q17 29 56.5 51t96.5 22q55 0 97 -19.5t70.5 -54t43 -80.5t14.5 -100q0 -55 -16 -102.5t-45.5 -82t-72 -54t-95.5 -19.5q-52 0 -90.5 21t-59.5 56v-65h-113zM450 245q0 73 -36.5 112.5t-94.5 39.5q-56 0 -93.5 -39.5t-37.5 -112.5q0 -36 10 -64.5
t27.5 -48.5t41.5 -30.5t52 -10.5q57 0 94 41t37 113z" />
    <glyph glyph-name="c" unicode="c" horiz-adv-x="541" 
d="M287 395q-27 0 -51 -10t-42.5 -29t-29.5 -47t-11 -65t11 -65.5t29.5 -48t43.5 -29.5t52 -10q28 0 49.5 9t36 22.5t23.5 29t13 29.5l102 -37q-9 -29 -27 -57t-45.5 -51t-65.5 -37t-86 -14q-54 0 -100 19.5t-79.5 54.5t-53 82t-19.5 103t19 103.5t53 82t79 53.5t98 19
q49 0 87 -14t66 -36.5t45 -51.5t25 -58l-104 -38q-4 16 -12.5 32.5t-23 29.5t-34.5 21t-48 8z" />
    <glyph glyph-name="d" unicode="d" horiz-adv-x="602" 
d="M153 245q0 -70 35.5 -112.5t95.5 -42.5q28 0 52 11.5t41 32t26.5 49t9.5 63.5q0 70 -35.5 110.5t-92.5 40.5t-94.5 -41t-37.5 -111zM525 89q0 -33 2 -58t3 -31h-111q-2 8 -3.5 28t-1.5 35q-17 -31 -54 -53t-89 -22q-53 0 -96 19.5t-73.5 54t-47.5 81.5t-17 102
q0 52 17 98.5t47.5 81.5t73.5 55t94 20q32 0 56 -6.5t41.5 -17t28.5 -22.5t17 -24v294h113v-635z" />
    <glyph glyph-name="e" unicode="e" horiz-adv-x="548" 
d="M395 297q-1 21 -8.5 40.5t-22.5 34.5t-37 24t-52 9q-27 0 -48.5 -9.5t-36.5 -25t-24 -35t-10 -38.5h239zM506 139q-10 -32 -29 -60t-47 -49t-64 -33t-80 -12q-50 0 -95 17.5t-79 51t-54.5 82t-20.5 110.5q0 58 19.5 105t52.5 80.5t76 52t89 18.5q56 0 100.5 -18t75 -51
t46.5 -79.5t16 -104.5q0 -14 -1 -24.5t-2 -12.5h-356q1 -28 12 -51t29 -40t41.5 -26.5t50.5 -9.5q53 0 81.5 24.5t40.5 60.5z" />
    <glyph glyph-name="f" unicode="f" horiz-adv-x="350" 
d="M291 625q-12 0 -24.5 -3t-23 -11.5t-17.5 -23t-7 -36.5v-64h113v-101h-113v-386h-117v386h-85v101h85v67q0 41 12.5 73.5t35 55t53.5 34.5t69 12q22 0 38.5 -3.5t22.5 -6.5v-99q-5 2 -15 3.5t-27 1.5z" />
    <glyph glyph-name="g" unicode="g" horiz-adv-x="589" 
d="M147 1q6 -45 38.5 -75t83.5 -30q138 0 138 146v51q-16 -29 -51.5 -50t-89.5 -21q-49 0 -90 18t-71 49.5t-47 75t-17 94.5q0 49 16.5 92t46 75t71 51t91.5 19q57 0 92.5 -20.5t51.5 -50.5v62h112v-441q0 -49 -13.5 -94t-43 -80t-77 -56t-116.5 -21q-48 0 -88.5 14t-71 38
t-49 56.5t-23.5 69.5zM285 121q56 0 90.5 37.5t34.5 100.5q0 31 -9.5 56.5t-26 43.5t-39.5 27.5t-50 9.5q-56 0 -91.5 -37t-35.5 -100q0 -64 35 -101t92 -37z" />
    <glyph glyph-name="h" unicode="h" horiz-adv-x="574" 
d="M191 0h-116v724h116v-284q25 32 63 46.5t76 14.5q45 0 78.5 -15t55.5 -41.5t33 -61.5t11 -75v-308h-116v288q0 45 -22.5 76.5t-77.5 31.5q-48 0 -73.5 -31.5t-27.5 -78.5v-286z" />
    <glyph glyph-name="i" unicode="i" horiz-adv-x="265" 
d="M75 0v487h115v-487h-115zM57 658q0 32 22 54t53 22q32 0 54 -22t22 -54t-22 -53.5t-54 -21.5q-31 0 -53 21.5t-22 53.5z" />
    <glyph glyph-name="j" unicode="j" horiz-adv-x="266" 
d="M75 487h116v-536q0 -34 -10 -62.5t-29 -49.5t-45.5 -32.5t-60.5 -11.5q-29 0 -45.5 3.5t-20.5 5.5v96q4 -1 14.5 -2t20.5 -1q33 0 46.5 16.5t13.5 46.5v527zM57 659q0 32 22 54t53 22q32 0 54 -22t22 -54q0 -31 -22 -53t-54 -22q-31 0 -53 22t-22 53z" />
    <glyph glyph-name="k" unicode="k" horiz-adv-x="544" 
d="M331 281l204 -281h-142l-143 199l-60 -63v-136h-115v724h115v-434l187 197h154z" />
    <glyph glyph-name="l" unicode="l" horiz-adv-x="266" 
d="M75 0v724h116v-724h-116z" />
    <glyph glyph-name="m" unicode="m" horiz-adv-x="873" 
d="M75 0v487h111v-62q21 37 62 56.5t82 19.5q48 0 87 -21.5t59 -64.5q29 48 69.5 67t88.5 19q33 0 64 -11t55 -33.5t38.5 -57.5t14.5 -83v-316h-112v297q0 43 -22.5 71.5t-71.5 28.5q-46 0 -73.5 -31.5t-27.5 -76.5v-289h-114v297q0 42 -22 71t-72 29q-47 0 -74 -30.5
t-27 -77.5v-289h-115z" />
    <glyph glyph-name="n" unicode="n" horiz-adv-x="574" 
d="M191 0h-116v487h113v-65q24 42 63.5 60.5t80.5 18.5q45 0 78 -15t54.5 -41.5t32.5 -61.5t11 -75v-308h-116v288q0 45 -22.5 76.5t-77.5 31.5q-50 0 -75.5 -33.5t-25.5 -81.5v-281z" />
    <glyph glyph-name="o" unicode="o" horiz-adv-x="579" 
d="M289 89q27 0 51.5 10t43.5 29.5t30 48.5t11 67t-11 66.5t-30 48t-43.5 29t-51.5 9.5t-51.5 -9.5t-43 -29t-30 -48t-11.5 -66.5t11.5 -67t30 -48.5t43 -29.5t51.5 -10zM289 502q55 0 101 -19.5t80 -54t53 -81.5t19 -103t-19 -103.5t-53 -82t-80 -54t-101 -19.5
q-54 0 -100.5 19.5t-80 54t-52.5 82t-19 103.5t19 103t52.5 81.5t80 54t100.5 19.5z" />
    <glyph glyph-name="p" unicode="p" horiz-adv-x="604" 
d="M75 -190v677h112v-66q18 32 58 54.5t97 22.5q54 0 96 -19.5t70.5 -53.5t43.5 -80.5t15 -100.5q0 -55 -16 -101.5t-46 -81t-72.5 -54t-94.5 -19.5q-53 0 -91 19.5t-57 47.5v-245h-115zM451 244q0 69 -36 110t-95 41q-29 0 -53 -11t-41 -30.5t-27 -47.5t-10 -62
q0 -70 37 -111.5t94 -41.5q58 0 94.5 41.5t36.5 111.5z" />
    <glyph glyph-name="q" unicode="q" horiz-adv-x="596" 
d="M414 -190v248q-18 -32 -55 -51t-88 -19q-52 0 -95 20t-74 54.5t-48 81.5t-17 101q0 52 16 98.5t46 81t73 54.5t96 20q32 0 57 -7t43 -18.5t30.5 -25t18.5 -26.5v65h111v-677h-114zM154 245q0 -35 9.5 -63.5t27 -49t41 -31.5t52.5 -11q28 0 52.5 11t41.5 31.5t27 49
t10 63.5q0 70 -37 110.5t-94 40.5q-58 0 -94 -40.5t-36 -110.5z" />
    <glyph glyph-name="r" unicode="r" horiz-adv-x="380" 
d="M360 372q-20 3 -38 3q-68 0 -99.5 -37t-31.5 -106v-232h-116v487h113v-78q17 40 55 62t86 22q11 0 19 -1t12 -2v-118z" />
    <glyph glyph-name="s" unicode="s" horiz-adv-x="457" 
d="M133 160q3 -33 27.5 -58t71.5 -25q36 0 54.5 16.5t18.5 39.5q0 20 -14 34t-43 20l-72 16q-65 14 -98 52.5t-33 89.5q0 32 14 60.5t38 50t56.5 34t70.5 12.5q51 0 85.5 -14.5t56.5 -35.5t32.5 -44.5t13.5 -41.5l-98 -28q-2 10 -7 23t-15.5 24t-27 18.5t-40.5 7.5
q-31 0 -50.5 -16.5t-19.5 -39.5q0 -20 13 -33t36 -18l74 -15q69 -15 104.5 -54.5t35.5 -93.5q0 -28 -11.5 -55.5t-34 -50t-57.5 -36.5t-81 -14q-53 0 -90 15t-61 37.5t-36 48t-14 46.5z" />
    <glyph glyph-name="t" unicode="t" horiz-adv-x="365" 
d="M222 487h101v-103h-101v-226q0 -32 15 -46.5t47 -14.5q12 0 24 1.5t16 2.5v-96q-5 -2 -22 -6.5t-49 -4.5q-68 0 -107 38t-39 107v245h-90v103h25q39 0 57 22t18 54v73h105v-149z" />
    <glyph glyph-name="u" unicode="u" horiz-adv-x="577" 
d="M392 54q-18 -33 -56.5 -50.5t-81.5 -17.5q-44 0 -78 15t-57.5 41.5t-36 61.5t-12.5 76v307h116v-286q0 -23 5.5 -43t17.5 -35t30.5 -24t44.5 -9q51 0 76.5 30.5t25.5 78.5v288h116v-398q0 -30 1.5 -52.5t3.5 -36.5h-111q-2 8 -3 23.5t-1 30.5z" />
    <glyph glyph-name="v" unicode="v" horiz-adv-x="525" 
d="M324 0h-116l-198 487h128l129 -348l126 348h122z" />
    <glyph glyph-name="w" unicode="w" horiz-adv-x="814" 
d="M471 487l115 -337l97 337h118l-156 -487h-116l-121 350l-118 -350h-119l-158 487h124l99 -337l115 337h120z" />
    <glyph glyph-name="x" unicode="x" horiz-adv-x="513" 
d="M188 246l-174 241h138q2 -4 10.5 -16t19.5 -28t23.5 -34.5t23.5 -34.5t19.5 -28t10.5 -15l106 156h132l-171 -239l177 -248h-136l-113 163q-3 -4 -11 -16.5t-19.5 -29t-24.5 -36t-24.5 -36t-20 -29t-10.5 -16.5h-133z" />
    <glyph glyph-name="y" unicode="y" horiz-adv-x="543" 
d="M99 -197l117 255l-208 429h131l140 -308l131 308h123l-310 -684h-124z" />
    <glyph glyph-name="z" unicode="z" horiz-adv-x="474" 
d="M38 0v101l247 284h-242v102h388v-98l-250 -287h255v-102h-398z" />
    <glyph glyph-name="braceleft" unicode="{" horiz-adv-x="365" 
d="M45 373q21 0 40.5 5t33.5 16.5t22.5 30t8.5 44.5v140q0 97 49 143.5t138 46.5h23v-89h-22q-45 0 -67.5 -22.5t-22.5 -74.5v-166q0 -49 -27 -81t-75 -43q48 -11 75 -43.5t27 -81.5v-166q0 -52 22.5 -74t67.5 -22h22v-89h-23q-89 0 -138 46.5t-49 143.5v139q0 53 -31 75
t-74 22v100z" />
    <glyph glyph-name="bar" unicode="|" horiz-adv-x="268" 
d="M85 -153v952h98v-952h-98z" />
    <glyph glyph-name="braceright" unicode="}" horiz-adv-x="365" 
d="M320 273q-43 0 -74 -22t-31 -75v-139q0 -97 -49 -143.5t-138 -46.5h-23v89h22q45 0 67.5 22t22.5 74v166q0 49 27 81.5t75 43.5q-48 11 -75 43t-27 81v166q0 52 -22.5 74.5t-67.5 22.5h-22v89h23q89 0 138 -46.5t49 -143.5v-140q0 -26 8.5 -44.5t22.5 -30t33.5 -16.5
t40.5 -5v-100z" />
    <glyph glyph-name="asciitilde" unicode="~" horiz-adv-x="577" 
d="M240 261q-28 14 -52 14q-26 0 -49.5 -14t-42.5 -40l-66 53q28 49 69.5 74.5t89.5 25.5q25 0 50 -6.5t51 -20.5l46 -25q27 -15 55 -15q26 0 49.5 13.5t40.5 39.5l66 -53q-28 -49 -69 -74t-89 -25q-50 0 -102 28z" />
    <glyph glyph-name="uni00A0" unicode="&#xa0;" horiz-adv-x="248" 
 />
    <glyph glyph-name="exclamdown" unicode="&#xa1;" horiz-adv-x="291" 
d="M216 -213h-142l30 498h83zM72 429q0 30 21.5 51.5t51.5 21.5t52 -21.5t22 -51.5q0 -31 -22 -52t-52 -21t-51.5 21t-21.5 52z" />
    <glyph glyph-name="cent" unicode="&#xa2;" horiz-adv-x="546" 
d="M234 0v90q-41 8 -76 29t-60 52t-39 70t-14 84t14 84.5t39.5 70t60 51t75.5 28.5v90h91v-88q37 -6 66 -20.5t50.5 -34t35.5 -43t20 -47.5l-100 -35q-6 23 -23 45.5t-49 32.5v-271q35 10 53.5 34t24.5 45l98 -35q-8 -24 -22.5 -47.5t-36 -43.5t-51 -34.5t-66.5 -19.5v-87
h-91zM154 325q0 -51 22.5 -84.5t57.5 -47.5v262q-35 -14 -57.5 -46.5t-22.5 -83.5z" />
    <glyph glyph-name="sterling" unicode="&#xa3;" horiz-adv-x="593" 
d="M131 368q-10 23 -16.5 48t-6.5 57q0 39 15 73.5t42 60.5t65 41t84 15q58 0 98 -17t64 -44t35 -59.5t12 -62.5l-110 -18q-1 50 -27 75.5t-70 25.5q-36 0 -64.5 -23t-28.5 -69q0 -28 8 -53t19 -50h188v-95h-159q1 -6 1.5 -12t0.5 -12q0 -46 -20.5 -84.5t-62.5 -61.5h177
q44 0 66 28t22 66l108 -12q0 -40 -12 -74t-34.5 -58.5t-54.5 -38.5t-72 -14h-336v104q50 19 78.5 54.5t28.5 78.5q0 9 -1 18t-3 18h-98v95h64z" />
    <glyph glyph-name="currency" unicode="&#xa4;" horiz-adv-x="585" 
d="M80 242q0 32 8.5 60.5t24.5 53.5l-74 75l72 71l74 -76q24 14 52 22t58 8q58 0 106 -28l73 74l71 -71l-70 -72q17 -25 26 -55t9 -62t-9 -61.5t-25 -54.5l69 -70l-70 -70l-71 72q-49 -29 -109 -29q-61 0 -112 31l-73 -74l-71 70l73 74q-32 49 -32 112zM179 242q0 -26 9 -47
t24.5 -37t36.5 -24.5t46 -8.5t46 8.5t36.5 24.5t24 37t8.5 47q0 25 -8.5 46.5t-24 37.5t-36.5 24.5t-46 8.5t-46 -8.5t-36.5 -24.5t-24.5 -37.5t-9 -46.5z" />
    <glyph glyph-name="yen" unicode="&#xa5;" horiz-adv-x="600" 
d="M361 144v-144h-116v144h-171v84h171v74h-171v84h111l-162 262h135l146 -251l142 251h130l-158 -262h117v-84h-174v-74h174v-84h-174z" />
    <glyph glyph-name="brokenbar" unicode="&#xa6;" horiz-adv-x="268" 
d="M183 799v-399h-98v399h98zM183 245v-399h-98v399h98z" />
    <glyph glyph-name="section" unicode="&#xa7;" horiz-adv-x="566" 
d="M488 246q0 -23 -7 -42.5t-18.5 -35.5t-25.5 -28t-29 -19q40 -28 61 -65.5t21 -78.5q0 -43 -17.5 -78t-46.5 -59.5t-66.5 -38t-78.5 -13.5q-48 0 -86 13.5t-64 38.5t-40 59t-15 76l109 20q0 -51 24.5 -80t72.5 -29q40 0 65 21.5t25 59.5q0 23 -13.5 42.5t-36.5 31.5
l-103 53q-28 14 -53.5 30t-44.5 36.5t-30.5 46.5t-11.5 60q0 23 7 42.5t18.5 35.5t25.5 27.5t29 19.5q-41 28 -61.5 65t-20.5 79q0 43 17.5 78t46.5 59.5t66.5 37.5t78.5 13q48 0 86 -14t64 -39t40 -59t15 -74l-110 -20q0 52 -25 80t-71 28q-41 0 -66 -22.5t-25 -58.5
q0 -47 51 -73l102 -53q28 -14 53.5 -30.5t45 -36.5t31 -46t11.5 -60zM225 355q-17 -11 -27.5 -28.5t-10.5 -38.5q0 -24 11.5 -42.5t40.5 -33.5l101 -54q17 11 28 28t11 39q0 24 -11.5 42t-40.5 34z" />
    <glyph glyph-name="dieresis" unicode="&#xa8;" horiz-adv-x="393" 
d="M32 625q0 27 18.5 46t45.5 19q28 0 47 -19t19 -46q0 -28 -19 -46.5t-47 -18.5q-27 0 -45.5 18.5t-18.5 46.5zM232 625q0 27 18.5 46t45.5 19t46 -19t19 -46q0 -28 -19 -46.5t-46 -18.5t-45.5 18.5t-18.5 46.5z" />
    <glyph glyph-name="copyright" unicode="&#xa9;" horiz-adv-x="818" 
d="M124 355q0 -62 22 -116t60 -93.5t90 -62t112 -22.5t111.5 22.5t90 62t60.5 93.5t22 116t-22 115.5t-60.5 93t-90 62t-111.5 22.5t-112 -22.5t-90 -62t-60 -93t-22 -115.5zM42 355q0 76 28.5 143t78 117.5t116.5 79.5t143 29t143 -29t117 -79.5t79 -117.5t29 -143
q0 -77 -29 -144t-79 -117.5t-117 -79.5t-143 -29t-143 29t-116.5 79.5t-78 117.5t-28.5 144zM412 473q-22 0 -40.5 -7.5t-33 -22.5t-23.5 -37t-9 -51t9 -51.5t23.5 -38t34 -23t40.5 -7.5q22 0 39 7t28.5 17.5t18.5 22.5t10 23l80 -29q-7 -23 -21 -45t-35.5 -40t-51.5 -29
t-68 -11q-42 0 -78.5 15.5t-62.5 43t-41.5 64.5t-15.5 81t15 81t41.5 64.5t62 42.5t77.5 15q38 0 68 -11t52 -29t35.5 -40.5t19.5 -45.5l-82 -30q-3 13 -9.5 25.5t-18 23t-27 16.5t-37.5 6z" />
    <glyph glyph-name="ordfeminine" unicode="&#xaa;" horiz-adv-x="425" 
d="M59 399q0 46 30 71.5t73 31.5l86 13q14 2 20 9t6 15q0 20 -15 33.5t-46 13.5q-30 0 -47 -17t-19 -40l-81 17q2 21 12.5 41.5t29.5 36t45 25.5t60 10q40 0 68.5 -10.5t46 -28.5t25.5 -41.5t8 -49.5v-169q0 -21 1.5 -36.5t2.5 -18.5h-82q-1 2 -2.5 13.5t-1.5 28.5
q-13 -20 -38 -36t-64 -16q-27 0 -49 8.5t-37.5 23t-23.5 33t-8 39.5zM196 363q15 0 29 4t25 13.5t17.5 25.5t6.5 39v15l-82 -12q-18 -3 -30.5 -13.5t-12.5 -30.5q0 -16 11.5 -28.5t35.5 -12.5z" />
    <glyph glyph-name="guillemotleft" unicode="&#xab;" horiz-adv-x="500" 
d="M163 100l-135 193l136 194h111l-134 -195l133 -192h-111zM370 100l-135 193l136 194h111l-134 -195l133 -192h-111z" />
    <glyph glyph-name="logicalnot" unicode="&#xac;" horiz-adv-x="583" 
d="M422 142v195h-377v97h478v-292h-101z" />
    <glyph glyph-name="uni00AD" unicode="&#xad;" horiz-adv-x="372" 
d="M45 241v103h282v-103h-282z" />
    <glyph glyph-name="registered" unicode="&#xae;" horiz-adv-x="818" 
d="M42 355q0 76 28.5 143t78 117.5t116.5 79.5t143 29t143 -29t117 -79.5t79 -117.5t29 -143q0 -77 -29 -144t-79 -117.5t-117 -79.5t-143 -29t-143 29t-116.5 79.5t-78 117.5t-28.5 144zM124 355q0 -62 22 -116t60 -93.5t90 -62t112 -22.5t111.5 22.5t90 62t60.5 93.5
t22 116t-22 115.5t-60.5 93t-90 62t-111.5 22.5t-112 -22.5t-90 -62t-60 -93t-22 -115.5zM395 301h-29v-144h-86v401h149q29 0 54 -10t43.5 -27.5t29 -40.5t10.5 -50q0 -42 -22.5 -73t-59.5 -45l85 -155h-98zM415 374q30 0 46.5 14.5t16.5 40.5t-16.5 41t-46.5 15h-49v-111
h49z" />
    <glyph glyph-name="macron" unicode="&#xaf;" horiz-adv-x="338" 
d="M30 577v90h278v-90h-278z" />
    <glyph glyph-name="degree" unicode="&#xb0;" horiz-adv-x="372" 
d="M115 500q0 -32 20.5 -53t50.5 -21t50 21t20 53t-20 52.5t-50 20.5t-50.5 -20.5t-20.5 -52.5zM22 500q0 34 13 63t35.5 51t52.5 34.5t63 12.5t62.5 -12.5t52 -34.5t36 -51t13.5 -63t-13.5 -63.5t-36 -51t-52.5 -33.5t-63 -12t-62.5 12.5t-52 34t-35.5 50.5t-13 63z" />
    <glyph glyph-name="plusminus" unicode="&#xb1;" horiz-adv-x="581" 
d="M241 405v129h99v-129h178v-94h-178v-128h-99v128h-178v94h178zM518 143v-96h-455v96h455z" />
    <glyph glyph-name="twosuperior" unicode="&#xb2;" horiz-adv-x="392" 
d="M62 566q-3 15 -3 30q0 24 9 46t26.5 38.5t43.5 26.5t59 10t58.5 -9.5t43 -26t26.5 -38t9 -45.5q0 -35 -20 -62.5t-55 -48.5l-71 -43q-17 -12 -20 -25h169v-76h-281v12q0 48 19.5 85.5t67.5 66.5l60 36q41 24 41 56q0 17 -12 30.5t-37 13.5q-24 0 -38 -14.5t-14 -37.5
q0 -4 0.5 -11t2.5 -13z" />
    <glyph glyph-name="threesuperior" unicode="&#xb3;" horiz-adv-x="412" 
d="M135 468q4 -25 22.5 -41.5t46.5 -16.5t44.5 14.5t16.5 34.5q0 28 -19 39.5t-42 11.5q-16 0 -31 -6l-32 61l91 69h-164v75h279v-72l-94 -69q45 -5 74 -33t29 -77q0 -25 -10.5 -47.5t-30 -39t-47.5 -26.5t-63 -10q-33 0 -59.5 9.5t-45 24.5t-30 34.5t-15.5 40.5z" />
    <glyph glyph-name="acute" unicode="&#xb4;" horiz-adv-x="286" 
d="M125 548h-95l89 148h137z" />
    <glyph glyph-name="mu" unicode="&#xb5;" horiz-adv-x="584" 
d="M397 54q-18 -33 -56.5 -50.5t-81.5 -17.5q-38 0 -68 12v-188h-116v677h116v-286q0 -23 5.5 -43t17.5 -35t30.5 -24t44.5 -9q51 0 76.5 30.5t25.5 78.5v288h116v-398q0 -23 1.5 -46t3.5 -43h-111q-2 8 -3 23.5t-1 30.5z" />
    <glyph glyph-name="paragraph" unicode="&#xb6;" horiz-adv-x="648" 
d="M341 -197h-95v507h-17q-41 0 -77 15t-63 41t-43 62t-16 77q0 49 18.5 87.5t50 64t74 39t89.5 13.5h366v-93h-97v-813h-95v813h-95v-813z" />
    <glyph glyph-name="periodcentered" unicode="&#xb7;" horiz-adv-x="284" 
d="M65 298q0 32 23 55t55 23q33 0 56 -23t23 -55q0 -33 -23 -55t-56 -22q-32 0 -55 22t-23 55z" />
    <glyph glyph-name="cedilla" unicode="&#xb8;" horiz-adv-x="296" 
d="M82 -62l48 75h78l-39 -60q43 -1 70 -23.5t27 -60.5q0 -18 -7 -34.5t-21.5 -29t-38 -20.5t-56.5 -8q-40 0 -70.5 15t-44.5 33l41 50q10 -10 28.5 -22.5t44.5 -12.5q18 0 31 7t13 23q0 12 -10.5 21t-30.5 9q-15 0 -28 -5z" />
    <glyph glyph-name="onesuperior" unicode="&#xb9;" horiz-adv-x="298" 
d="M132 343v233h-89v60q43 1 68 23.5t30 49.5h82v-366h-91z" />
    <glyph glyph-name="ordmasculine" unicode="&#xba;" horiz-adv-x="483" 
d="M242 376q35 0 62 25t27 76t-27 75.5t-62 24.5t-62 -24.5t-27 -75.5q0 -50 27 -75.5t62 -25.5zM242 659q39 0 72 -13.5t57 -37.5t37.5 -57.5t13.5 -73.5t-13.5 -73.5t-37.5 -57.5t-57 -37.5t-72 -13.5t-72 13.5t-57 37.5t-37.5 57.5t-13.5 73.5t13.5 73.5t37.5 57.5
t57 37.5t72 13.5z" />
    <glyph glyph-name="guillemotright" unicode="&#xbb;" horiz-adv-x="500" 
d="M226 100l133 192l-134 195h111l136 -194l-135 -193h-111zM19 100l133 192l-134 195h111l136 -194l-135 -193h-111z" />
    <glyph glyph-name="onequarter" unicode="&#xbc;" horiz-adv-x="796" 
d="M139 282v233h-89v60q43 1 68 23.5t30 49.5h82v-366h-91zM417 159l172 207h99v-222h62v-73h-62v-71h-90v71h-181v88zM598 269l-103 -125h103v125zM90 0l462 648h104l-461 -648h-105z" />
    <glyph glyph-name="onehalf" unicode="&#xbd;" 
d="M139 282v233h-89v60q43 1 68 23.5t30 49.5h82v-366h-91zM89 0l462 648h104l-461 -648h-105zM483 223q-3 15 -3 30q0 24 9 46t26.5 38.5t43.5 26.5t59 10t58.5 -9.5t43 -26t26.5 -38t9 -45.5q0 -35 -20 -62.5t-55 -48.5l-71 -43q-17 -12 -20 -25h169v-76h-281v12
q0 48 19.5 85.5t67.5 66.5l60 36q41 24 41 56q0 17 -12 30.5t-37 13.5q-24 0 -38 -14.5t-14 -37.5q0 -4 0.5 -11t2.5 -13z" />
    <glyph glyph-name="threequarters" unicode="&#xbe;" horiz-adv-x="869" 
d="M132 407q4 -25 22.5 -41.5t46.5 -16.5t44.5 14.5t16.5 34.5q0 28 -19 39.5t-42 11.5q-16 0 -31 -6l-32 61l91 69h-164v75h279v-72l-94 -69q45 -5 74 -33t29 -77q0 -25 -10.5 -47.5t-30 -39t-47.5 -26.5t-63 -10q-33 0 -59.5 9.5t-45 24.5t-30 34.5t-15.5 40.5zM491 159
l172 207h99v-222h62v-73h-62v-71h-90v71h-181v88zM672 269l-103 -125h103v125zM175 0l462 648h104l-461 -648h-105z" />
    <glyph glyph-name="questiondown" unicode="&#xbf;" horiz-adv-x="487" 
d="M307 286q3 -18 3 -38q0 -45 -18 -82t-62 -68l-46 -33q-25 -18 -36 -40t-11 -48q0 -39 26.5 -69.5t81.5 -30.5q29 0 50 10t35 26.5t20.5 37t6.5 42.5q0 11 -1.5 23.5t-4.5 21.5l114 -12q3 -11 4 -22.5t1 -23.5q0 -38 -14 -75t-42 -66.5t-70 -48t-99 -18.5q-56 0 -98.5 17
t-71.5 45t-43.5 64t-14.5 74q0 60 27.5 102.5t71.5 73.5l43 30q24 17 36.5 42.5t12.5 55.5v10h99zM184 429q0 30 21 51.5t52 21.5q30 0 51.5 -21.5t21.5 -51.5t-21.5 -51.5t-51.5 -21.5q-31 0 -52 21.5t-21 51.5z" />
    <glyph glyph-name="Agrave" unicode="&#xc0;" horiz-adv-x="711" 
d="M503 178h-300l-66 -178h-127l276 709h139l276 -709h-131zM245 289h216l-108 290zM163 883h148l103 -124h-108z" />
    <glyph glyph-name="Aacute" unicode="&#xc1;" horiz-adv-x="711" 
d="M503 178h-300l-66 -178h-127l276 709h139l276 -709h-131zM245 289h216l-108 290zM404 759h-109l102 124h149z" />
    <glyph glyph-name="Acircumflex" unicode="&#xc2;" horiz-adv-x="711" 
d="M503 178h-300l-66 -178h-127l276 709h139l276 -709h-131zM245 289h216l-108 290zM171 759l116 124h129l119 -124h-110l-75 64l-72 -64h-107z" />
    <glyph glyph-name="Atilde" unicode="&#xc3;" horiz-adv-x="711" 
d="M503 178h-300l-66 -178h-127l276 709h139l276 -709h-131zM245 289h216l-108 290zM517 863q0 -55 -28.5 -82.5t-70.5 -27.5q-22 0 -40 7t-33 16l-10 7q-12 8 -23 12.5t-22 4.5t-20.5 -8t-9.5 -25v-10h-75v22q0 56 29 83t71 27q22 0 40.5 -7t33.5 -16l10 -6q12 -7 22.5 -12
t20.5 -5q13 0 22 7.5t9 25.5v10h74v-23z" />
    <glyph glyph-name="Adieresis" unicode="&#xc4;" horiz-adv-x="711" 
d="M134 821q0 28 19 47.5t47 19.5q29 0 48 -19.5t19 -47.5t-19 -47t-48 -19q-28 0 -47 19t-19 47zM441 821q0 28 18.5 47.5t46.5 19.5q29 0 48 -19.5t19 -47.5t-19 -47t-48 -19q-28 0 -46.5 19t-18.5 47zM503 178h-300l-66 -178h-127l276 709h139l276 -709h-131zM245 289
h216l-108 290z" />
    <glyph glyph-name="Aring" unicode="&#xc5;" horiz-adv-x="711" 
d="M245 289h216l-108 290zM353 709q21 0 35.5 13.5t14.5 36.5q0 22 -14.5 35.5t-35.5 13.5t-35.5 -13.5t-14.5 -35.5q0 -23 14.5 -36.5t35.5 -13.5zM483 759q0 -29 -11 -52.5t-31 -40.5l260 -666h-131l-67 178h-300l-66 -178h-127l258 663q-20 17 -32 42t-12 54
q0 27 10.5 50t28 40t41 26.5t49.5 9.5t49.5 -9.5t41.5 -26.5t28.5 -40t10.5 -50z" />
    <glyph glyph-name="AE" unicode="&#xc6;" horiz-adv-x="1044" 
d="M548 0v180h-277l-115 -180h-149l470 709h509v-112h-318v-188h288v-109h-288v-188h318v-112h-438zM548 283v328l-211 -328h211z" />
    <glyph glyph-name="Ccedilla" unicode="&#xc7;" horiz-adv-x="758" 
d="M335 -62l31 49q-66 6 -125 33.5t-103.5 74.5t-70 112.5t-25.5 146.5q0 87 30 155.5t79.5 116t114 73t133.5 25.5q67 0 121 -18.5t94 -50t66 -73.5t38 -88l-113 -38q-8 32 -24.5 60.5t-42 49.5t-60 33t-79.5 12q-44 0 -86 -16t-75 -48t-53 -80.5t-20 -112.5
q0 -62 19.5 -109.5t52.5 -79.5t75.5 -48.5t87.5 -16.5t80 13t61 35t43.5 50t26.5 58l110 -36q-11 -41 -34 -80.5t-58 -71t-81 -53t-104 -27.5l-22 -35q43 -1 70 -23.5t27 -60.5q0 -18 -7 -34.5t-21.5 -29t-38 -20.5t-56.5 -8q-40 0 -70.5 15t-44.5 33l41 50
q10 -10 28.5 -22.5t44.5 -12.5q18 0 31 7t13 23q0 12 -10.5 21t-30.5 9q-15 0 -28 -5z" />
    <glyph glyph-name="Egrave" unicode="&#xc8;" horiz-adv-x="582" 
d="M137 883h148l103 -124h-108zM85 0v709h438v-112h-318v-188h288v-109h-288v-188h318v-112h-438z" />
    <glyph glyph-name="Eacute" unicode="&#xc9;" horiz-adv-x="582" 
d="M332 759h-109l102 124h149zM85 0v709h438v-112h-318v-188h288v-109h-288v-188h318v-112h-438z" />
    <glyph glyph-name="Ecircumflex" unicode="&#xca;" horiz-adv-x="582" 
d="M121 759l116 124h129l119 -124h-110l-75 64l-72 -64h-107zM85 0v709h438v-112h-318v-188h288v-109h-288v-188h318v-112h-438z" />
    <glyph glyph-name="Edieresis" unicode="&#xcb;" horiz-adv-x="582" 
d="M125 821q0 28 19 47.5t47 19.5t47.5 -19.5t19.5 -47.5t-19.5 -47t-47.5 -19t-47 19t-19 47zM353 821q0 28 18.5 47.5t47.5 19.5q28 0 47 -19.5t19 -47.5t-19 -47t-47 -19q-29 0 -47.5 19t-18.5 47zM85 0v709h438v-112h-318v-188h288v-109h-288v-188h318v-112h-438z" />
    <glyph glyph-name="Igrave" unicode="&#xcc;" horiz-adv-x="292" 
d="M85 0v709h122v-709h-122zM-46 883h148l103 -124h-108z" />
    <glyph glyph-name="Iacute" unicode="&#xcd;" horiz-adv-x="292" 
d="M85 0v709h122v-709h-122zM197 759h-109l102 124h149z" />
    <glyph glyph-name="Icircumflex" unicode="&#xce;" horiz-adv-x="292" 
d="M85 0v709h122v-709h-122zM-30 759l116 124h129l119 -124h-110l-75 64l-72 -64h-107z" />
    <glyph glyph-name="Idieresis" unicode="&#xcf;" horiz-adv-x="292" 
d="M85 0v709h122v-709h-122zM1 821q0 26 17.5 44t43.5 18t44.5 -18t18.5 -44t-18.5 -44t-44.5 -18t-43.5 18t-17.5 44zM171 821q0 26 18 44t44 18t44 -18t18 -44t-18 -44t-44 -18t-44 18t-18 44z" />
    <glyph glyph-name="Eth" unicode="&#xd0;" horiz-adv-x="740" 
d="M99 0v319h-82v93h82v297h251q72 0 135 -23.5t109.5 -69t73.5 -112t27 -151.5t-27 -151t-74 -111t-110 -68t-135 -23h-250zM345 110q46 0 87 15t71.5 45t48.5 75.5t18 107.5t-17.5 108.5t-48 77t-71.5 45.5t-87 15h-127v-187h131v-93h-131v-209h126z" />
    <glyph glyph-name="Ntilde" unicode="&#xd1;" horiz-adv-x="765" 
d="M550 863q0 -55 -28.5 -82.5t-70.5 -27.5q-22 0 -40 7t-33 16l-10 7q-12 8 -23 12.5t-22 4.5t-20.5 -8t-9.5 -25v-10h-75v22q0 56 29 83t71 27q22 0 40.5 -7t33.5 -16l10 -6q12 -7 22.5 -12t20.5 -5q13 0 22 7.5t9 25.5v10h74v-23zM555 0l-350 537v-537h-120v709h153
l322 -503v503h120v-709h-125z" />
    <glyph glyph-name="Ograve" unicode="&#xd2;" 
d="M210 883h148l103 -124h-108zM165 355q0 -64 20.5 -112t53.5 -80t75.5 -48t87.5 -16t88 16t76 48t53.5 80t20.5 112t-20.5 112t-53.5 80t-76 48t-88 16t-87.5 -16t-75.5 -48t-53.5 -80t-20.5 -112zM42 355q0 87 30 155.5t80 116t115 72.5t135 25t135 -25t115 -72.5
t80.5 -116t30.5 -155.5t-30.5 -156t-80.5 -116.5t-115 -72.5t-135 -25t-135 25t-115 72.5t-80 116.5t-30 156z" />
    <glyph glyph-name="Oacute" unicode="&#xd3;" 
d="M448 759h-109l102 124h149zM165 355q0 -64 20.5 -112t53.5 -80t75.5 -48t87.5 -16t88 16t76 48t53.5 80t20.5 112t-20.5 112t-53.5 80t-76 48t-88 16t-87.5 -16t-75.5 -48t-53.5 -80t-20.5 -112zM42 355q0 87 30 155.5t80 116t115 72.5t135 25t135 -25t115 -72.5
t80.5 -116t30.5 -155.5t-30.5 -156t-80.5 -116.5t-115 -72.5t-135 -25t-135 25t-115 72.5t-80 116.5t-30 156z" />
    <glyph glyph-name="Ocircumflex" unicode="&#xd4;" 
d="M221 759l116 124h129l119 -124h-110l-75 64l-72 -64h-107zM165 355q0 -64 20.5 -112t53.5 -80t75.5 -48t87.5 -16t88 16t76 48t53.5 80t20.5 112t-20.5 112t-53.5 80t-76 48t-88 16t-87.5 -16t-75.5 -48t-53.5 -80t-20.5 -112zM42 355q0 87 30 155.5t80 116t115 72.5
t135 25t135 -25t115 -72.5t80.5 -116t30.5 -155.5t-30.5 -156t-80.5 -116.5t-115 -72.5t-135 -25t-135 25t-115 72.5t-80 116.5t-30 156z" />
    <glyph glyph-name="Otilde" unicode="&#xd5;" 
d="M569 864q0 -55 -28.5 -82.5t-70.5 -27.5q-22 0 -40 7t-33 16l-10 7q-12 8 -23 12.5t-22 4.5t-20.5 -8t-9.5 -25v-10h-75v22q0 56 29 83t71 27q22 0 40.5 -7t33.5 -16l10 -6q12 -7 22.5 -12t20.5 -5q13 0 22 7.5t9 25.5v10h74v-23zM165 355q0 -64 20.5 -112t53.5 -80
t75.5 -48t87.5 -16t88 16t76 48t53.5 80t20.5 112t-20.5 112t-53.5 80t-76 48t-88 16t-87.5 -16t-75.5 -48t-53.5 -80t-20.5 -112zM42 355q0 87 30 155.5t80 116t115 72.5t135 25t135 -25t115 -72.5t80.5 -116t30.5 -155.5t-30.5 -156t-80.5 -116.5t-115 -72.5t-135 -25
t-135 25t-115 72.5t-80 116.5t-30 156z" />
    <glyph glyph-name="Odieresis" unicode="&#xd6;" 
d="M175 821q0 28 19 47.5t47 19.5t47.5 -19.5t19.5 -47.5t-19.5 -47t-47.5 -19t-47 19t-19 47zM498 821q0 28 19 47.5t47 19.5t47.5 -19.5t19.5 -47.5t-19.5 -47t-47.5 -19t-47 19t-19 47zM165 355q0 -64 20.5 -112t53.5 -80t75.5 -48t87.5 -16t88 16t76 48t53.5 80
t20.5 112t-20.5 112t-53.5 80t-76 48t-88 16t-87.5 -16t-75.5 -48t-53.5 -80t-20.5 -112zM42 355q0 87 30 155.5t80 116t115 72.5t135 25t135 -25t115 -72.5t80.5 -116t30.5 -155.5t-30.5 -156t-80.5 -116.5t-115 -72.5t-135 -25t-135 25t-115 72.5t-80 116.5t-30 156z" />
    <glyph glyph-name="multiply" unicode="&#xd7;" horiz-adv-x="548" 
d="M274 222l-167 -171l-69 69l168 172l-167 171l69 69l166 -171l166 171l69 -69l-167 -171l168 -172l-69 -69z" />
    <glyph glyph-name="Oslash" unicode="&#xd8;" 
d="M42 355q0 87 30 155.5t80 116t115 72.5t135 25q50 0 97 -13t89 -37l71 91l78 -60l-72 -92q45 -48 71.5 -112.5t26.5 -145.5q0 -87 -30.5 -156t-80.5 -116.5t-115 -72.5t-135 -25q-49 0 -96 12t-89 36l-68 -88l-80 59l71 91q-45 48 -71.5 113t-26.5 147zM165 355
q0 -52 13 -92.5t36 -71.5l303 391q-53 29 -115 29q-45 0 -87.5 -16t-75.5 -48t-53.5 -80t-20.5 -112zM640 355q0 51 -13 91t-35 71l-303 -391q52 -27 113 -27q45 0 88 16t76 48t53.5 80t20.5 112z" />
    <glyph glyph-name="Ugrave" unicode="&#xd9;" horiz-adv-x="683" 
d="M164 883h148l103 -124h-108zM341 -15q-56 0 -104 17t-83.5 50t-56 82t-20.5 113v462h119v-455q0 -75 38.5 -115t106.5 -40q69 0 107 40t38 115v455h120v-462q0 -64 -20.5 -113t-56 -82t-84 -50t-104.5 -17z" />
    <glyph glyph-name="Uacute" unicode="&#xda;" horiz-adv-x="683" 
d="M371 759h-109l102 124h149zM341 -15q-56 0 -104 17t-83.5 50t-56 82t-20.5 113v462h119v-455q0 -75 38.5 -115t106.5 -40q69 0 107 40t38 115v455h120v-462q0 -64 -20.5 -113t-56 -82t-84 -50t-104.5 -17z" />
    <glyph glyph-name="Ucircumflex" unicode="&#xdb;" horiz-adv-x="683" 
d="M160 759l116 124h129l119 -124h-110l-75 64l-72 -64h-107zM341 -15q-56 0 -104 17t-83.5 50t-56 82t-20.5 113v462h119v-455q0 -75 38.5 -115t106.5 -40q69 0 107 40t38 115v455h120v-462q0 -64 -20.5 -113t-56 -82t-84 -50t-104.5 -17z" />
    <glyph glyph-name="Udieresis" unicode="&#xdc;" horiz-adv-x="683" 
d="M158 821q0 28 18.5 47.5t47.5 19.5q28 0 47 -19.5t19 -47.5t-19 -47t-47 -19q-29 0 -47.5 19t-18.5 47zM394 821q0 28 18.5 47.5t47.5 19.5q28 0 47 -19.5t19 -47.5t-19 -47t-47 -19q-29 0 -47.5 19t-18.5 47zM341 -15q-56 0 -104 17t-83.5 50t-56 82t-20.5 113v462h119
v-455q0 -75 38.5 -115t106.5 -40q69 0 107 40t38 115v455h120v-462q0 -64 -20.5 -113t-56 -82t-84 -50t-104.5 -17z" />
    <glyph glyph-name="Yacute" unicode="&#xdd;" horiz-adv-x="638" 
d="M10 709h142l170 -297l171 297h135l-250 -409v-300h-120v300zM352 759h-109l102 124h149z" />
    <glyph glyph-name="Thorn" unicode="&#xde;" horiz-adv-x="599" 
d="M330 251q57 0 89.5 29.5t32.5 79.5q0 52 -32.5 82t-89.5 30h-125v-221h125zM205 147v-147h-120v709h120v-133h137q50 0 92.5 -16.5t73.5 -45t48.5 -68t17.5 -85.5t-17.5 -85.5t-48 -68t-73 -44.5t-92.5 -16h-138z" />
    <glyph glyph-name="germandbls" unicode="&#xdf;" horiz-adv-x="583" 
d="M381 343q1 -17 11 -25t30 -16l33 -15q46 -20 77 -58.5t31 -92.5q0 -25 -10 -52t-31 -49t-53 -36t-77 -14t-77 14t-51.5 35t-29 46t-9.5 47l96 22q0 -11 4 -23.5t12 -23.5t21.5 -18.5t33.5 -7.5q31 0 46 17t15 35q0 41 -50 63l-32 14q-18 8 -37 18.5t-34.5 25.5t-25.5 36
t-10 50q0 42 19.5 69t45.5 44l25 17q24 15 38.5 33.5t14.5 43.5q0 32 -25.5 56t-76.5 24q-23 0 -44 -8.5t-37 -25.5t-25.5 -43.5t-9.5 -62.5v-482h-114v489q0 58 18.5 102t50 73.5t73 44.5t88.5 15q49 0 89.5 -14t68.5 -38t43.5 -56t15.5 -69q0 -29 -7.5 -52t-19.5 -41
t-28 -31.5t-33 -24.5l-24 -15q-13 -8 -21 -17t-8 -23z" />
    <glyph glyph-name="agrave" unicode="&#xe0;" horiz-adv-x="532" 
d="M45 132q0 33 11.5 58t31 43.5t46.5 29.5t58 16l125 19q21 3 28.5 12.5t7.5 22.5q0 31 -22 52.5t-70 21.5q-46 0 -71 -25.5t-29 -62.5l-106 24q3 31 19 60t42 51t62.5 35t81.5 13q56 0 95.5 -15t64 -40t36 -58t11.5 -69v-242q0 -33 2.5 -53.5t3.5 -24.5h-108q-1 2 -3 17.5
t-2 44.5q-17 -28 -54 -52.5t-96 -24.5q-38 0 -68.5 12t-52 32.5t-33 47t-11.5 55.5zM232 76q24 0 46 6.5t38.5 21t26.5 38.5t10 60v22l-127 -19q-27 -5 -46 -20.5t-19 -45.5q0 -25 18 -44t53 -19zM98 696h139l88 -148h-95z" />
    <glyph glyph-name="aacute" unicode="&#xe1;" horiz-adv-x="532" 
d="M45 132q0 33 11.5 58t31 43.5t46.5 29.5t58 16l125 19q21 3 28.5 12.5t7.5 22.5q0 31 -22 52.5t-70 21.5q-46 0 -71 -25.5t-29 -62.5l-106 24q3 31 19 60t42 51t62.5 35t81.5 13q56 0 95.5 -15t64 -40t36 -58t11.5 -69v-242q0 -33 2.5 -53.5t3.5 -24.5h-108q-1 2 -3 17.5
t-2 44.5q-17 -28 -54 -52.5t-96 -24.5q-38 0 -68.5 12t-52 32.5t-33 47t-11.5 55.5zM232 76q24 0 46 6.5t38.5 21t26.5 38.5t10 60v22l-127 -19q-27 -5 -46 -20.5t-19 -45.5q0 -25 18 -44t53 -19zM291 548h-95l89 148h137z" />
    <glyph glyph-name="acircumflex" unicode="&#xe2;" horiz-adv-x="532" 
d="M45 132q0 33 11.5 58t31 43.5t46.5 29.5t58 16l125 19q21 3 28.5 12.5t7.5 22.5q0 31 -22 52.5t-70 21.5q-46 0 -71 -25.5t-29 -62.5l-106 24q3 31 19 60t42 51t62.5 35t81.5 13q56 0 95.5 -15t64 -40t36 -58t11.5 -69v-242q0 -33 2.5 -53.5t3.5 -24.5h-108q-1 2 -3 17.5
t-2 44.5q-17 -28 -54 -52.5t-96 -24.5q-38 0 -68.5 12t-52 32.5t-33 47t-11.5 55.5zM232 76q24 0 46 6.5t38.5 21t26.5 38.5t10 60v22l-127 -19q-27 -5 -46 -20.5t-19 -45.5q0 -25 18 -44t53 -19zM96 549l107 143h121l108 -143h-99l-70 77l-70 -77h-97z" />
    <glyph glyph-name="atilde" unicode="&#xe3;" horiz-adv-x="532" 
d="M45 132q0 33 11.5 58t31 43.5t46.5 29.5t58 16l125 19q21 3 28.5 12.5t7.5 22.5q0 31 -22 52.5t-70 21.5q-46 0 -71 -25.5t-29 -62.5l-106 24q3 31 19 60t42 51t62.5 35t81.5 13q56 0 95.5 -15t64 -40t36 -58t11.5 -69v-242q0 -33 2.5 -53.5t3.5 -24.5h-108q-1 2 -3 17.5
t-2 44.5q-17 -28 -54 -52.5t-96 -24.5q-38 0 -68.5 12t-52 32.5t-33 47t-11.5 55.5zM232 76q24 0 46 6.5t38.5 21t26.5 38.5t10 60v22l-127 -19q-27 -5 -46 -20.5t-19 -45.5q0 -25 18 -44t53 -19zM101 574q0 59 29.5 87t73.5 28q22 0 38.5 -6.5t31.5 -15.5l10 -6
q11 -7 21.5 -12t21.5 -5q31 0 31 44h76v-17q0 -59 -29 -88t-73 -29q-22 0 -39 7t-32 16l-10 6q-11 7 -21.5 11.5t-21.5 4.5q-15 0 -22.5 -10t-7.5 -33h-76z" />
    <glyph glyph-name="adieresis" unicode="&#xe4;" horiz-adv-x="532" 
d="M45 132q0 33 11.5 58t31 43.5t46.5 29.5t58 16l125 19q21 3 28.5 12.5t7.5 22.5q0 31 -22 52.5t-70 21.5q-46 0 -71 -25.5t-29 -62.5l-106 24q3 31 19 60t42 51t62.5 35t81.5 13q56 0 95.5 -15t64 -40t36 -58t11.5 -69v-242q0 -33 2.5 -53.5t3.5 -24.5h-108q-1 2 -3 17.5
t-2 44.5q-17 -28 -54 -52.5t-96 -24.5q-38 0 -68.5 12t-52 32.5t-33 47t-11.5 55.5zM232 76q24 0 46 6.5t38.5 21t26.5 38.5t10 60v22l-127 -19q-27 -5 -46 -20.5t-19 -45.5q0 -25 18 -44t53 -19zM99 625q0 27 18.5 46t45.5 19q28 0 47 -19t19 -46q0 -28 -19 -46.5
t-47 -18.5q-27 0 -45.5 18.5t-18.5 46.5zM299 625q0 27 18.5 46t45.5 19t46 -19t19 -46q0 -28 -19 -46.5t-46 -18.5t-45.5 18.5t-18.5 46.5z" />
    <glyph glyph-name="aring" unicode="&#xe5;" horiz-adv-x="532" 
d="M45 132q0 33 11.5 58t31 43.5t46.5 29.5t58 16l125 19q21 3 28.5 12.5t7.5 22.5q0 31 -22 52.5t-70 21.5q-46 0 -71 -25.5t-29 -62.5l-106 24q3 31 19 60t42 51t62.5 35t81.5 13q56 0 95.5 -15t64 -40t36 -58t11.5 -69v-242q0 -33 2.5 -53.5t3.5 -24.5h-108q-1 2 -3 17.5
t-2 44.5q-17 -28 -54 -52.5t-96 -24.5q-38 0 -68.5 12t-52 32.5t-33 47t-11.5 55.5zM232 76q24 0 46 6.5t38.5 21t26.5 38.5t10 60v22l-127 -19q-27 -5 -46 -20.5t-19 -45.5q0 -25 18 -44t53 -19zM373 648q0 -24 -9 -44t-25 -34.5t-36.5 -23t-43.5 -8.5t-43 8.5t-36 23
t-25 34.5t-9 44t9 44.5t25 35t36 23t43 8.5t43.5 -8.5t36.5 -23t25 -35t9 -44.5zM303 648q0 20 -12.5 32.5t-32.5 12.5q-18 0 -30.5 -12.5t-12.5 -32.5q0 -19 12.5 -31.5t30.5 -12.5q20 0 32.5 12.5t12.5 31.5z" />
    <glyph glyph-name="ae" unicode="&#xe6;" horiz-adv-x="872" 
d="M829 139q-10 -32 -30 -60t-48.5 -49t-65 -33t-78.5 -12q-59 0 -110 24.5t-85 70.5q-12 -18 -28.5 -35t-39.5 -30.5t-53 -21.5t-67 -8q-44 0 -77 12t-56 32.5t-34.5 47t-11.5 55.5q0 33 11.5 58t31 43.5t46.5 29.5t58 16l132 19q23 3 30 13.5t7 21.5q0 30 -24 52.5
t-73 22.5q-48 0 -75.5 -25.5t-31.5 -60.5l-102 21q3 33 20.5 61.5t45.5 50.5t65 34.5t79 12.5q61 0 102.5 -19.5t65.5 -51.5q32 34 75 52.5t90 18.5q56 0 100 -18t74 -51t46 -79.5t16 -104.5q0 -8 -0.5 -19t-1.5 -18h-358q1 -28 12 -51.5t29 -40t42 -26t51 -9.5
q53 0 81.5 24.5t41.5 61.5zM236 76q22 0 44.5 6.5t40.5 21t29 38.5t11 59v23l-135 -19q-29 -4 -47 -21t-18 -47q0 -23 19 -42t56 -19zM718 297q-1 21 -8.5 40.5t-22.5 34.5t-37.5 24t-52.5 9q-28 0 -49.5 -9.5t-36.5 -25t-24 -35t-10 -38.5h241z" />
    <glyph glyph-name="ccedilla" unicode="&#xe7;" horiz-adv-x="541" 
d="M220 -63l33 51q-47 6 -86.5 28t-68 55.5t-45 77.5t-16.5 95q0 56 19 103.5t53 82t79 53.5t98 19q49 0 87 -14t66 -36.5t45 -51.5t25 -58l-104 -38q-4 16 -12.5 32.5t-23 29.5t-34.5 21t-48 8q-27 0 -51 -10t-42.5 -29t-29.5 -47t-11 -65t11 -65.5t29.5 -48t43.5 -29.5
t52 -10q28 0 49.5 9t36 22.5t23.5 29t13 29.5l102 -37q-8 -26 -23 -51t-37.5 -46.5t-53 -37t-69.5 -21.5l-23 -36q43 -1 70 -23.5t27 -60.5q0 -18 -7 -34.5t-21.5 -29t-38 -20.5t-56.5 -8q-40 0 -70.5 15t-44.5 33l41 50q10 -10 28.5 -22.5t44.5 -12.5q18 0 31 7t13 23
q0 12 -10.5 21t-30.5 9q-15 0 -28 -5z" />
    <glyph glyph-name="egrave" unicode="&#xe8;" horiz-adv-x="548" 
d="M395 297q-1 21 -8.5 40.5t-22.5 34.5t-37 24t-52 9q-27 0 -48.5 -9.5t-36.5 -25t-24 -35t-10 -38.5h239zM506 139q-10 -32 -29 -60t-47 -49t-64 -33t-80 -12q-50 0 -95 17.5t-79 51t-54.5 82t-20.5 110.5q0 58 19.5 105t52.5 80.5t76 52t89 18.5q56 0 100.5 -18t75 -51
t46.5 -79.5t16 -104.5q0 -14 -1 -24.5t-2 -12.5h-356q1 -28 12 -51t29 -40t41.5 -26.5t50.5 -9.5q53 0 81.5 24.5t40.5 60.5zM112 696h139l88 -148h-95z" />
    <glyph glyph-name="eacute" unicode="&#xe9;" horiz-adv-x="548" 
d="M317 548h-95l89 148h137zM395 297q-1 21 -8.5 40.5t-22.5 34.5t-37 24t-52 9q-27 0 -48.5 -9.5t-36.5 -25t-24 -35t-10 -38.5h239zM506 139q-10 -32 -29 -60t-47 -49t-64 -33t-80 -12q-50 0 -95 17.5t-79 51t-54.5 82t-20.5 110.5q0 58 19.5 105t52.5 80.5t76 52t89 18.5
q56 0 100.5 -18t75 -51t46.5 -79.5t16 -104.5q0 -14 -1 -24.5t-2 -12.5h-356q1 -28 12 -51t29 -40t41.5 -26.5t50.5 -9.5q53 0 81.5 24.5t40.5 60.5z" />
    <glyph glyph-name="ecircumflex" unicode="&#xea;" horiz-adv-x="548" 
d="M113 549l107 143h121l108 -143h-99l-70 77l-70 -77h-97zM395 297q-1 21 -8.5 40.5t-22.5 34.5t-37 24t-52 9q-27 0 -48.5 -9.5t-36.5 -25t-24 -35t-10 -38.5h239zM506 139q-10 -32 -29 -60t-47 -49t-64 -33t-80 -12q-50 0 -95 17.5t-79 51t-54.5 82t-20.5 110.5
q0 58 19.5 105t52.5 80.5t76 52t89 18.5q56 0 100.5 -18t75 -51t46.5 -79.5t16 -104.5q0 -14 -1 -24.5t-2 -12.5h-356q1 -28 12 -51t29 -40t41.5 -26.5t50.5 -9.5q53 0 81.5 24.5t40.5 60.5z" />
    <glyph glyph-name="edieresis" unicode="&#xeb;" horiz-adv-x="548" 
d="M115 625q0 27 18.5 46t45.5 19q28 0 47 -19t19 -46q0 -28 -19 -46.5t-47 -18.5q-27 0 -45.5 18.5t-18.5 46.5zM315 625q0 27 18.5 46t45.5 19t46 -19t19 -46q0 -28 -19 -46.5t-46 -18.5t-45.5 18.5t-18.5 46.5zM395 297q-1 21 -8.5 40.5t-22.5 34.5t-37 24t-52 9
q-27 0 -48.5 -9.5t-36.5 -25t-24 -35t-10 -38.5h239zM506 139q-10 -32 -29 -60t-47 -49t-64 -33t-80 -12q-50 0 -95 17.5t-79 51t-54.5 82t-20.5 110.5q0 58 19.5 105t52.5 80.5t76 52t89 18.5q56 0 100.5 -18t75 -51t46.5 -79.5t16 -104.5q0 -14 -1 -24.5t-2 -12.5h-356
q1 -28 12 -51t29 -40t41.5 -26.5t50.5 -9.5q53 0 81.5 24.5t40.5 60.5z" />
    <glyph glyph-name="igrave" unicode="&#xec;" horiz-adv-x="265" 
d="M75 0v487h115v-487h-115zM-38 696h139l88 -148h-95z" />
    <glyph glyph-name="iacute" unicode="&#xed;" horiz-adv-x="265" 
d="M176 548h-95l89 148h137zM75 0v487h115v-487h-115z" />
    <glyph glyph-name="icircumflex" unicode="&#xee;" horiz-adv-x="265" 
d="M-34 549l107 143h121l108 -143h-99l-70 77l-70 -77h-97zM75 0v487h115v-487h-115z" />
    <glyph glyph-name="idieresis" unicode="&#xef;" horiz-adv-x="265" 
d="M-10 625q0 26 17.5 44t43.5 18t44 -18t18 -44t-18 -43.5t-44 -17.5t-43.5 17.5t-17.5 43.5zM152 625q0 26 17.5 44t43.5 18t44 -18t18 -44t-18 -43.5t-44 -17.5t-43.5 17.5t-17.5 43.5zM75 0v487h115v-487h-115z" />
    <glyph glyph-name="eth" unicode="&#xf0;" horiz-adv-x="576" 
d="M417 594q54 -56 88.5 -135.5t34.5 -188.5q0 -59 -16.5 -110.5t-48.5 -90t-79 -61t-108 -22.5q-54 0 -100 18.5t-79.5 50.5t-52.5 76.5t-19 96.5q0 57 20.5 100.5t53.5 73.5t75.5 45.5t86.5 15.5q39 0 73.5 -11t53.5 -33q-14 40 -35.5 71.5t-49.5 57.5l-135 -61l-31 72
l92 42q-28 16 -57 27t-56 19l36 89q42 -11 90.5 -31t96.5 -54l112 51l32 -73zM288 89q27 0 51.5 9t43 27t29.5 44t11 60t-11 60.5t-29.5 44t-43 26.5t-51.5 9t-51.5 -9t-43 -27t-30 -44t-11.5 -60t11.5 -60t30 -44t43 -27t51.5 -9z" />
    <glyph glyph-name="ntilde" unicode="&#xf1;" horiz-adv-x="574" 
d="M191 0h-116v487h113v-65q24 42 63.5 60.5t80.5 18.5q45 0 78 -15t54.5 -41.5t32.5 -61.5t11 -75v-308h-116v288q0 45 -22.5 76.5t-77.5 31.5q-50 0 -75.5 -33.5t-25.5 -81.5v-281zM132 574q0 59 29.5 87t73.5 28q22 0 38.5 -6.5t31.5 -15.5l10 -6q11 -7 21.5 -12t21.5 -5
q31 0 31 44h76v-17q0 -59 -29 -88t-73 -29q-22 0 -39 7t-32 16l-10 6q-11 7 -21.5 11.5t-21.5 4.5q-15 0 -22.5 -10t-7.5 -33h-76z" />
    <glyph glyph-name="ograve" unicode="&#xf2;" horiz-adv-x="579" 
d="M289 89q27 0 51.5 10t43.5 29.5t30 48.5t11 67t-11 66.5t-30 48t-43.5 29t-51.5 9.5t-51.5 -9.5t-43 -29t-30 -48t-11.5 -66.5t11.5 -67t30 -48.5t43 -29.5t51.5 -10zM289 502q55 0 101 -19.5t80 -54t53 -81.5t19 -103t-19 -103.5t-53 -82t-80 -54t-101 -19.5
q-54 0 -100.5 19.5t-80 54t-52.5 82t-19 103.5t19 103t52.5 81.5t80 54t100.5 19.5zM115 696h139l88 -148h-95z" />
    <glyph glyph-name="oacute" unicode="&#xf3;" horiz-adv-x="579" 
d="M327 548h-95l89 148h137zM289 89q27 0 51.5 10t43.5 29.5t30 48.5t11 67t-11 66.5t-30 48t-43.5 29t-51.5 9.5t-51.5 -9.5t-43 -29t-30 -48t-11.5 -66.5t11.5 -67t30 -48.5t43 -29.5t51.5 -10zM289 502q55 0 101 -19.5t80 -54t53 -81.5t19 -103t-19 -103.5t-53 -82
t-80 -54t-101 -19.5q-54 0 -100.5 19.5t-80 54t-52.5 82t-19 103.5t19 103t52.5 81.5t80 54t100.5 19.5z" />
    <glyph glyph-name="ocircumflex" unicode="&#xf4;" horiz-adv-x="579" 
d="M123 549l107 143h121l108 -143h-99l-70 77l-70 -77h-97zM289 89q27 0 51.5 10t43.5 29.5t30 48.5t11 67t-11 66.5t-30 48t-43.5 29t-51.5 9.5t-51.5 -9.5t-43 -29t-30 -48t-11.5 -66.5t11.5 -67t30 -48.5t43 -29.5t51.5 -10zM289 502q55 0 101 -19.5t80 -54t53 -81.5
t19 -103t-19 -103.5t-53 -82t-80 -54t-101 -19.5q-54 0 -100.5 19.5t-80 54t-52.5 82t-19 103.5t19 103t52.5 81.5t80 54t100.5 19.5z" />
    <glyph glyph-name="otilde" unicode="&#xf5;" horiz-adv-x="579" 
d="M289 89q27 0 51.5 10t43.5 29.5t30 48.5t11 67t-11 66.5t-30 48t-43.5 29t-51.5 9.5t-51.5 -9.5t-43 -29t-30 -48t-11.5 -66.5t11.5 -67t30 -48.5t43 -29.5t51.5 -10zM289 502q55 0 101 -19.5t80 -54t53 -81.5t19 -103t-19 -103.5t-53 -82t-80 -54t-101 -19.5
q-54 0 -100.5 19.5t-80 54t-52.5 82t-19 103.5t19 103t52.5 81.5t80 54t100.5 19.5zM125 574q0 59 29.5 87t73.5 28q22 0 38.5 -6.5t31.5 -15.5l10 -6q11 -7 21.5 -12t21.5 -5q31 0 31 44h76v-17q0 -59 -29 -88t-73 -29q-22 0 -39 7t-32 16l-10 6q-11 7 -21.5 11.5
t-21.5 4.5q-15 0 -22.5 -10t-7.5 -33h-76z" />
    <glyph glyph-name="odieresis" unicode="&#xf6;" horiz-adv-x="579" 
d="M124 625q0 27 18.5 46t45.5 19q28 0 47 -19t19 -46q0 -28 -19 -46.5t-47 -18.5q-27 0 -45.5 18.5t-18.5 46.5zM324 625q0 27 18.5 46t45.5 19t46 -19t19 -46q0 -28 -19 -46.5t-46 -18.5t-45.5 18.5t-18.5 46.5zM289 89q27 0 51.5 10t43.5 29.5t30 48.5t11 67t-11 66.5
t-30 48t-43.5 29t-51.5 9.5t-51.5 -9.5t-43 -29t-30 -48t-11.5 -66.5t11.5 -67t30 -48.5t43 -29.5t51.5 -10zM289 502q55 0 101 -19.5t80 -54t53 -81.5t19 -103t-19 -103.5t-53 -82t-80 -54t-101 -19.5q-54 0 -100.5 19.5t-80 54t-52.5 82t-19 103.5t19 103t52.5 81.5t80 54
t100.5 19.5z" />
    <glyph glyph-name="divide" unicode="&#xf7;" horiz-adv-x="578" 
d="M215 111q0 29 21.5 50t50.5 21q30 0 51 -21t21 -50t-21 -50.5t-51 -21.5q-29 0 -50.5 21.5t-21.5 50.5zM215 472q0 29 21.5 50.5t50.5 21.5q30 0 51 -21.5t21 -50.5t-21 -50.5t-51 -21.5q-29 0 -50.5 21.5t-21.5 50.5zM52 341h474v-99h-474v99z" />
    <glyph glyph-name="oslash" unicode="&#xf8;" horiz-adv-x="579" 
d="M289 502q36 0 68.5 -8.5t60.5 -24.5l52 65l62 -51l-52 -65q29 -34 45.5 -78.5t16.5 -95.5q0 -56 -19 -103.5t-53 -82t-80 -54t-101 -19.5q-38 0 -69 8.5t-57 23.5l-50 -63l-63 51l50 63q-30 34 -46.5 78.5t-16.5 97.5q0 56 19 103t52.5 81.5t80 54t100.5 19.5zM153 244
q0 -49 19 -85l178 224q-30 14 -61 14q-27 0 -51.5 -9.5t-43 -29t-30 -48t-11.5 -66.5zM289 89q27 0 51.5 10t43.5 29.5t30 48.5t11 67q0 24 -5 44.5t-13 37.5l-177 -224q26 -13 59 -13z" />
    <glyph glyph-name="ugrave" unicode="&#xf9;" horiz-adv-x="577" 
d="M392 54q-18 -33 -56.5 -50.5t-81.5 -17.5q-44 0 -78 15t-57.5 41.5t-36 61.5t-12.5 76v307h116v-286q0 -23 5.5 -43t17.5 -35t30.5 -24t44.5 -9q51 0 76.5 30.5t25.5 78.5v288h116v-398q0 -30 1.5 -52.5t3.5 -36.5h-111q-2 8 -3 23.5t-1 30.5zM125 696h139l88 -148h-95z
" />
    <glyph glyph-name="uacute" unicode="&#xfa;" horiz-adv-x="577" 
d="M304 548h-95l89 148h137zM392 54q-18 -33 -56.5 -50.5t-81.5 -17.5q-44 0 -78 15t-57.5 41.5t-36 61.5t-12.5 76v307h116v-286q0 -23 5.5 -43t17.5 -35t30.5 -24t44.5 -9q51 0 76.5 30.5t25.5 78.5v288h116v-398q0 -30 1.5 -52.5t3.5 -36.5h-111q-2 8 -3 23.5t-1 30.5z
" />
    <glyph glyph-name="ucircumflex" unicode="&#xfb;" horiz-adv-x="577" 
d="M119 549l107 143h121l108 -143h-99l-70 77l-70 -77h-97zM392 54q-18 -33 -56.5 -50.5t-81.5 -17.5q-44 0 -78 15t-57.5 41.5t-36 61.5t-12.5 76v307h116v-286q0 -23 5.5 -43t17.5 -35t30.5 -24t44.5 -9q51 0 76.5 30.5t25.5 78.5v288h116v-398q0 -30 1.5 -52.5t3.5 -36.5
h-111q-2 8 -3 23.5t-1 30.5z" />
    <glyph glyph-name="udieresis" unicode="&#xfc;" horiz-adv-x="577" 
d="M122 625q0 27 18.5 46t45.5 19q28 0 47 -19t19 -46q0 -28 -19 -46.5t-47 -18.5q-27 0 -45.5 18.5t-18.5 46.5zM322 625q0 27 18.5 46t45.5 19t46 -19t19 -46q0 -28 -19 -46.5t-46 -18.5t-45.5 18.5t-18.5 46.5zM392 54q-18 -33 -56.5 -50.5t-81.5 -17.5q-44 0 -78 15
t-57.5 41.5t-36 61.5t-12.5 76v307h116v-286q0 -23 5.5 -43t17.5 -35t30.5 -24t44.5 -9q51 0 76.5 30.5t25.5 78.5v288h116v-398q0 -30 1.5 -52.5t3.5 -36.5h-111q-2 8 -3 23.5t-1 30.5z" />
    <glyph glyph-name="yacute" unicode="&#xfd;" horiz-adv-x="543" 
d="M99 -197l117 255l-208 429h131l140 -308l131 308h123l-310 -684h-124zM300 548h-95l89 148h137z" />
    <glyph glyph-name="thorn" unicode="&#xfe;" horiz-adv-x="604" 
d="M75 -190v914h116v-297q20 29 58.5 50t92.5 21t96 -19.5t70.5 -53.5t43.5 -80.5t15 -100.5q0 -55 -16 -101.5t-46 -81t-72.5 -54t-94.5 -19.5q-53 0 -91 19.5t-57 47.5v-245h-115zM451 244q0 69 -36 110t-95 41q-29 0 -53 -11t-41 -30.5t-27 -47.5t-10 -62
q0 -70 37 -111.5t94 -41.5q58 0 94.5 41.5t36.5 111.5z" />
    <glyph glyph-name="ydieresis" unicode="&#xff;" horiz-adv-x="543" 
d="M99 -197l117 255l-208 429h131l140 -308l131 308h123l-310 -684h-124zM108 625q0 27 18.5 46t45.5 19q28 0 47 -19t19 -46q0 -28 -19 -46.5t-47 -18.5q-27 0 -45.5 18.5t-18.5 46.5zM308 625q0 27 18.5 46t45.5 19t46 -19t19 -46q0 -28 -19 -46.5t-46 -18.5t-45.5 18.5
t-18.5 46.5z" />
    <glyph glyph-name="dotlessi" unicode="&#x131;" horiz-adv-x="265" 
d="M75 0v487h115v-487h-115z" />
    <glyph glyph-name="OE" unicode="&#x152;" horiz-adv-x="1136" 
d="M640 0v81q-45 -47 -106 -71.5t-132 -24.5q-70 0 -135 25t-115 72.5t-80 116.5t-30 156t30 155.5t80 116t115 72.5t135 25q71 0 132 -24.5t106 -72.5v82h437v-112h-317v-188h288v-109h-288v-188h318v-112h-438zM165 355q0 -64 20.5 -112t53.5 -80t75.5 -48t87.5 -16t88 16
t76 48t53.5 80t20.5 112t-20.5 112t-53.5 80t-76 48t-88 16t-87.5 -16t-75.5 -48t-53.5 -80t-20.5 -112z" />
    <glyph glyph-name="oe" unicode="&#x153;" horiz-adv-x="937" 
d="M289 502q60 0 109.5 -22.5t84.5 -64.5q32 40 79.5 63.5t100.5 23.5q56 0 100.5 -18t75 -51t46.5 -79.5t16 -104.5q0 -14 -1 -24.5t-2 -12.5h-356q1 -28 12 -51t29 -40t41.5 -26.5t50.5 -9.5q53 0 81.5 24.5t40.5 60.5l98 -31q-10 -32 -29 -60t-47 -49t-64 -33t-80 -12
q-57 0 -107 22.5t-85 65.5q-34 -42 -84 -65t-110 -23q-54 0 -100.5 19.5t-80 54t-52.5 82t-19 103.5t19 103t52.5 81.5t80 54t100.5 19.5zM289 89q27 0 51.5 10t43.5 29.5t30 48.5t11 67t-11 66.5t-30 48t-43.5 29t-51.5 9.5t-51.5 -9.5t-43 -29t-30 -48t-11.5 -66.5
t11.5 -67t30 -48.5t43 -29.5t51.5 -10zM784 297q-1 21 -8.5 40.5t-22.5 34.5t-37 24t-52 9q-27 0 -48.5 -9.5t-36.5 -25t-24 -35t-10 -38.5h239z" />
    <glyph glyph-name="Scaron" unicode="&#x160;" horiz-adv-x="599" 
d="M236 883l72 -65l75 65h108l-119 -124h-129l-116 124h109zM443 509q-3 16 -11.5 35.5t-25 35.5t-41.5 27t-61 11q-27 0 -49.5 -8.5t-38.5 -22.5t-25 -32.5t-9 -38.5q0 -34 20.5 -58t62.5 -33l102 -21q94 -19 143 -74t49 -130q0 -41 -16.5 -80t-48.5 -69t-78.5 -48
t-107.5 -18q-68 0 -117.5 19.5t-83 51t-51.5 70.5t-22 77l112 32q3 -28 14 -53.5t31.5 -45t49.5 -31.5t67 -12q64 0 96.5 28t32.5 70q0 35 -24.5 60.5t-70.5 35.5l-100 21q-81 17 -130.5 68t-49.5 131q0 45 19 84.5t52 69t76.5 46.5t93.5 17q63 0 107 -17t73.5 -43.5
t45.5 -58.5t22 -62z" />
    <glyph glyph-name="scaron" unicode="&#x161;" horiz-adv-x="457" 
d="M159 694l70 -77l70 77h98l-106 -145h-124l-106 145h98zM133 160q3 -33 27.5 -58t71.5 -25q36 0 54.5 16.5t18.5 39.5q0 20 -14 34t-43 20l-72 16q-65 14 -98 52.5t-33 89.5q0 32 14 60.5t38 50t56.5 34t70.5 12.5q51 0 85.5 -14.5t56.5 -35.5t32.5 -44.5t13.5 -41.5
l-98 -28q-2 10 -7 23t-15.5 24t-27 18.5t-40.5 7.5q-31 0 -50.5 -16.5t-19.5 -39.5q0 -20 13 -33t36 -18l74 -15q69 -15 104.5 -54.5t35.5 -93.5q0 -28 -11.5 -55.5t-34 -50t-57.5 -36.5t-81 -14q-53 0 -90 15t-61 37.5t-36 48t-14 46.5z" />
    <glyph glyph-name="Ydieresis" unicode="&#x178;" horiz-adv-x="638" 
d="M135 821q0 28 18.5 47.5t47.5 19.5q28 0 47 -19.5t19 -47.5t-19 -47t-47 -19q-29 0 -47.5 19t-18.5 47zM374 821q0 28 19 47.5t47 19.5t47.5 -19.5t19.5 -47.5t-19.5 -47t-47.5 -19t-47 19t-19 47zM10 709h142l170 -297l171 297h135l-250 -409v-300h-120v300z" />
    <glyph glyph-name="Zcaron" unicode="&#x17d;" horiz-adv-x="636" 
d="M252 883l72 -65l75 65h108l-119 -124h-129l-116 124h109zM42 0v118l393 478h-382v113h537v-114l-398 -481h403v-114h-553z" />
    <glyph glyph-name="zcaron" unicode="&#x17e;" horiz-adv-x="474" 
d="M171 694l70 -77l70 77h98l-106 -145h-124l-106 145h98zM38 0v101l247 284h-242v102h388v-98l-250 -287h255v-102h-398z" />
    <glyph glyph-name="florin" unicode="&#x192;" horiz-adv-x="498" 
d="M193 388h-103v99h123l21 101q8 40 26 69t42 47.5t52 27t57 8.5q32 0 48.5 -3.5t33.5 -8.5v-101q-26 8 -57 8q-12 0 -25 -2.5t-26 -11.5t-23 -25.5t-16 -44.5l-13 -64h122v-99h-142l-81 -401q-8 -40 -26 -69t-42 -47.5t-52 -27t-57 -8.5q-33 0 -50 3.5t-35 8.5v101
q12 -3 27 -5t34 -2q12 0 25 2.5t25.5 11.5t23 25.5t15.5 43.5z" />
    <glyph glyph-name="uni0237" unicode="&#x237;" horiz-adv-x="266" 
d="M75 487h116v-536q0 -34 -10 -62.5t-29 -49.5t-45.5 -32.5t-60.5 -11.5q-29 0 -45.5 3.5t-20.5 5.5v96q4 -1 14.5 -2t20.5 -1q33 0 46.5 16.5t13.5 46.5v527z" />
    <glyph glyph-name="circumflex" unicode="&#x2c6;" horiz-adv-x="396" 
d="M30 549l107 143h121l108 -143h-99l-70 77l-70 -77h-97z" />
    <glyph glyph-name="caron" unicode="&#x2c7;" horiz-adv-x="396" 
d="M128 694l70 -77l70 77h98l-106 -145h-124l-106 145h98z" />
    <glyph glyph-name="uni02C9" unicode="&#x2c9;" horiz-adv-x="338" 
d="M30 577v90h278v-90h-278z" />
    <glyph glyph-name="breve" unicode="&#x2d8;" horiz-adv-x="369" 
d="M184 547q-38 0 -66 12.5t-47.5 33t-29.5 47t-11 54.5h82q2 -22 18 -41.5t54 -19.5q19 0 32.5 5.5t22.5 14.5t13 19.5t5 21.5h82q-1 -28 -11 -54.5t-29 -47t-48 -33t-67 -12.5z" />
    <glyph glyph-name="dotaccent" unicode="&#x2d9;" horiz-adv-x="184" 
d="M20 622q0 30 21 51t51 21t51 -21t21 -51q0 -29 -21 -50t-51 -21t-51 21t-21 50z" />
    <glyph glyph-name="ring" unicode="&#x2da;" horiz-adv-x="287" 
d="M257 645q0 -24 -9 -44t-25 -34.5t-36.5 -23t-43.5 -8.5t-43 8.5t-36 23t-25 34.5t-9 44t9 44.5t25 35t36 23t43 8.5t43.5 -8.5t36.5 -23t25 -35t9 -44.5zM187 645q0 20 -12.5 32.5t-32.5 12.5q-18 0 -30.5 -12.5t-12.5 -32.5q0 -19 12.5 -31.5t30.5 -12.5q20 0 32.5 12.5
t12.5 31.5z" />
    <glyph glyph-name="ogonek" unicode="&#x2db;" horiz-adv-x="228" 
d="M147 -220q-25 0 -47 7t-38 20.5t-25 33t-9 43.5q0 28 9.5 49.5t24.5 37t33 26.5t35 19l68 -16q-14 -7 -28.5 -16t-26.5 -21t-19.5 -26.5t-7.5 -31.5q0 -24 15.5 -35t35.5 -11q16 0 31 3v-74q-10 -4 -21.5 -6t-29.5 -2z" />
    <glyph glyph-name="tilde" unicode="&#x2dc;" horiz-adv-x="385" 
d="M26 574q0 59 29.5 87t73.5 28q22 0 38.5 -6.5t31.5 -15.5l10 -6q11 -7 21.5 -12t21.5 -5q31 0 31 44h76v-17q0 -59 -29 -88t-73 -29q-22 0 -39 7t-32 16l-10 6q-11 7 -21.5 11.5t-21.5 4.5q-15 0 -22.5 -10t-7.5 -33h-76z" />
    <glyph glyph-name="hungarumlaut" unicode="&#x2dd;" horiz-adv-x="383" 
d="M105 548h-76l52 148h118zM247 548h-76l64 148h119z" />
    <glyph glyph-name="endash" unicode="&#x2013;" horiz-adv-x="641" 
d="M63 242v101h514v-101h-514z" />
    <glyph glyph-name="emdash" unicode="&#x2014;" horiz-adv-x="1092" 
d="M73 242v101h946v-101h-946z" />
    <glyph glyph-name="quoteleft" unicode="&#x2018;" horiz-adv-x="226" 
d="M190 509q0 -27 -20.5 -46.5t-52.5 -19.5q-35 0 -57.5 24.5t-22.5 66.5q0 47 14 80t35.5 55t46.5 33t48 13v-55q-31 -6 -54 -31.5t-25 -57.5q2 1 7.5 3t13.5 2q29 0 48 -18.5t19 -48.5z" />
    <glyph glyph-name="quoteright" unicode="&#x2019;" horiz-adv-x="230" 
d="M37 649q0 27 21 47.5t53 20.5q36 0 59.5 -25.5t23.5 -67.5q0 -49 -14.5 -83t-36.5 -56.5t-48 -33.5t-49 -13v55q31 6 54.5 32t25.5 60q-2 -1 -7.5 -3t-13.5 -2q-30 0 -49 19t-19 50z" />
    <glyph glyph-name="quotesinglbase" unicode="&#x201a;" horiz-adv-x="230" 
d="M37 65q0 28 21 48t53 20q36 0 59.5 -25.5t23.5 -67.5q0 -48 -14.5 -82.5t-36.5 -56.5t-48 -33t-49 -14v56q15 3 29.5 11t25.5 20.5t17.5 28t7.5 32.5q-2 -2 -7.5 -3.5t-13.5 -1.5q-30 0 -49 18.5t-19 49.5z" />
    <glyph glyph-name="quotedblleft" unicode="&#x201c;" horiz-adv-x="412" 
d="M375 512q0 -27 -20.5 -46.5t-52.5 -19.5q-35 0 -57.5 24.5t-22.5 66.5q0 47 14 80t35.5 55t47 33t47.5 13v-55q-15 -3 -29 -11t-24.5 -20t-17 -27t-7.5 -31q2 1 7 3t13 2q30 0 48.5 -18.5t18.5 -48.5zM190 512q0 -27 -20.5 -46.5t-52.5 -19.5q-35 0 -57.5 24.5
t-22.5 66.5q0 47 14 80t35.5 55t46.5 33t48 13v-55q-31 -5 -54 -31t-25 -58q2 1 7.5 3t13.5 2q29 0 48 -18.5t19 -48.5z" />
    <glyph glyph-name="quotedblright" unicode="&#x201d;" horiz-adv-x="411" 
d="M37 648q0 28 20 47.5t52 19.5q35 0 58 -24.5t23 -66.5q0 -47 -14 -80.5t-36 -55t-47.5 -32t-47.5 -13.5v54q31 6 54 31t25 59q-2 -2 -7.5 -3.5t-13.5 -1.5q-29 0 -47.5 18t-18.5 48zM221 648q0 28 20.5 47.5t52.5 19.5q35 0 57.5 -24.5t22.5 -66.5q0 -47 -14 -80.5
t-35.5 -55t-47 -32t-47.5 -13.5v54q31 6 54 31t24 59q-2 -2 -7 -3.5t-13 -1.5q-29 0 -48 18t-19 48z" />
    <glyph glyph-name="quotedblbase" unicode="&#x201e;" horiz-adv-x="411" 
d="M37 63q0 28 20 47.5t52 19.5q35 0 58 -24.5t23 -66.5q0 -47 -14 -80.5t-36 -55t-47.5 -32t-47.5 -13.5v54q31 6 54 31t25 59q-2 -2 -7.5 -3.5t-13.5 -1.5q-29 0 -47.5 18t-18.5 48zM221 63q0 28 20.5 47.5t52.5 19.5q35 0 57.5 -24.5t22.5 -66.5q0 -47 -14 -80.5
t-35.5 -55t-47 -32t-47.5 -13.5v54q31 6 54 31t24 59q-2 -2 -7 -3.5t-13 -1.5q-29 0 -48 18t-19 48z" />
    <glyph glyph-name="dagger" unicode="&#x2020;" horiz-adv-x="401" 
d="M151 162v308h-124v94h124v145h99v-145h124v-94h-124v-308h-99z" />
    <glyph glyph-name="daggerdbl" unicode="&#x2021;" horiz-adv-x="441" 
d="M171 239v231h-124v93h124v146h99v-146h124v-93h-124v-231h124v-93h-124v-146h-99v146h-124v93h124z" />
    <glyph glyph-name="bullet" unicode="&#x2022;" horiz-adv-x="542" 
d="M63 294q0 43 16.5 81.5t45 66.5t66 44.5t80.5 16.5t80.5 -16.5t66 -44.5t45 -66.5t16.5 -81.5q0 -42 -16.5 -80t-45 -66t-66 -44.5t-80.5 -16.5t-80.5 16.5t-66 44.5t-45 66t-16.5 80z" />
    <glyph glyph-name="ellipsis" unicode="&#x2026;" horiz-adv-x="926" 
d="M844 65q0 -30 -21 -51.5t-52 -21.5t-52.5 21.5t-21.5 51.5q0 31 21.5 52.5t52.5 21.5t52 -21.5t21 -52.5zM536 65q0 -30 -21 -51.5t-52 -21.5t-52.5 21.5t-21.5 51.5q0 31 21.5 52.5t52.5 21.5t52 -21.5t21 -52.5zM229 65q0 -30 -21.5 -51.5t-52.5 -21.5
q-30 0 -51.5 21.5t-21.5 51.5q0 31 21.5 52.5t51.5 21.5q31 0 52.5 -21.5t21.5 -52.5z" />
    <glyph glyph-name="perthousand" unicode="&#x2030;" horiz-adv-x="1070" 
d="M141 497q0 -33 20.5 -53.5t50.5 -20.5q31 0 51 20.5t20 53.5q0 32 -20 52.5t-51 20.5q-30 0 -50.5 -20.5t-20.5 -52.5zM49 497q0 34 13 63t35.5 50.5t52 34t62.5 12.5t63 -12.5t52.5 -34t35.5 -50.5t13 -63q0 -35 -13 -64t-35.5 -51t-52.5 -34t-63 -12t-63 12.5t-52 34
t-35 51t-13 63.5zM559 152q0 -33 21 -53.5t51 -20.5q31 0 51 20.5t20 53.5q0 32 -20 52.5t-51 20.5q-30 0 -51 -20.5t-21 -52.5zM139 0l462 648h104l-461 -648h-105zM792 152q0 -33 20.5 -53.5t50.5 -20.5q31 0 51.5 20.5t20.5 53.5q0 32 -20.5 52.5t-51.5 20.5
q-30 0 -50.5 -20.5t-20.5 -52.5zM467 152q0 34 13 63t35.5 50.5t52.5 34t63 12.5q37 0 66.5 -14.5t49.5 -40.5q20 26 49.5 40.5t66.5 14.5q33 0 63 -12.5t52.5 -34t36 -50.5t13.5 -63q0 -35 -13.5 -64t-36 -51t-52.5 -34t-63 -12q-37 0 -66.5 14.5t-49.5 40.5
q-20 -26 -50 -40.5t-67 -14.5q-33 0 -62.5 12.5t-52 34t-35.5 51t-13 63.5z" />
    <glyph glyph-name="guilsinglleft" unicode="&#x2039;" horiz-adv-x="293" 
d="M163 100l-135 193l136 194h111l-134 -195l133 -192h-111z" />
    <glyph glyph-name="guilsinglright" unicode="&#x203a;" horiz-adv-x="293" 
d="M19 100l133 192l-134 195h112l135 -194l-135 -193h-111z" />
    <glyph glyph-name="Euro" unicode="&#x20ac;" horiz-adv-x="683" 
d="M140 287q-1 7 -1.5 16.5t-0.5 19.5q0 12 0.5 20t1.5 16h-77v87h94q18 52 50 92.5t73.5 68.5t90 42t98.5 14q104 0 171 -46l-46 -93q-25 18 -56.5 26.5t-68.5 8.5q-58 0 -108.5 -27.5t-78.5 -85.5h275l-42 -87h-256q-1 -6 -1.5 -14.5t-0.5 -20.5q0 -14 0.5 -23t1.5 -14
h226l-41 -88h-161q28 -55 77 -81.5t108 -26.5q42 0 77.5 12t61.5 36l56 -86q-35 -30 -85 -49t-110 -19q-51 0 -99 14t-89 41t-72.5 67t-49.5 92h-95v88h77z" />
    <glyph glyph-name="trademark" unicode="&#x2122;" horiz-adv-x="868" 
d="M225 632v-288h-86v288h-107v77h300v-77h-107zM726 344v227l-95 -227h-64l-93 224v-224h-84v365h115l97 -232l95 232h111v-365h-82z" />
    <glyph glyph-name="fi" unicode="&#xfb01;" horiz-adv-x="619" 
d="M272 729q22 0 38.5 -3.5t22.5 -6.5v-99q-5 2 -15 3.5t-27 1.5q-11 0 -24 -3t-23.5 -11.5t-17.5 -23t-7 -36.5v-64h324v-487h-114v386h-210v-386h-117v386h-85v101h85v67q0 41 12.5 73.5t35 55t53.5 34.5t69 12zM411 659q0 32 21.5 54t53.5 22t54 -22t22 -54
q0 -31 -22 -53t-54 -22t-53.5 22t-21.5 53z" />
    <glyph glyph-name="fl" unicode="&#xfb02;" horiz-adv-x="617" 
d="M291 625q-11 0 -24 -3t-23.5 -11.5t-17.5 -23t-7 -36.5v-64h208v237h115v-724h-115v386h-208v-386h-117v386h-85v101h85v67q0 41 12.5 73.5t35 55t53.5 34.5t69 12q22 0 38.5 -3.5t22.5 -6.5v-99q-5 2 -15 3.5t-27 1.5z" />
    <glyph glyph-name="uniFB03" unicode="&#xfb03;" horiz-adv-x="940" 
d="M732 659q0 32 22 54t53 22q32 0 54 -22t22 -54q0 -31 -22 -53t-54 -22q-31 0 -53 22t-22 53zM611 625q-11 0 -24 -3t-23.5 -11.5t-17.5 -23t-7 -36.5v-64h326v-487h-115v386h-211v-386h-117v386h-203v-386h-117v386h-85v101h85v67q0 41 12.5 73.5t35 55t53.5 34.5t69 12
q22 0 38.5 -3.5t22.5 -6.5v-99q-5 2 -15 3.5t-27 1.5q-12 0 -24.5 -3t-23 -11.5t-17.5 -23t-7 -36.5v-64h203v67q0 41 12.5 73.5t35 55t53.5 34.5t69 12q22 0 38.5 -3.5t22.5 -6.5v-99q-5 2 -15 3.5t-27 1.5z" />
    <glyph glyph-name="uniFB04" unicode="&#xfb04;" horiz-adv-x="940" 
d="M611 625q-11 0 -24 -3t-23.5 -11.5t-17.5 -23t-7 -36.5v-64h211v237h115v-724h-115v386h-211v-386h-117v386h-203v-386h-117v386h-85v101h85v67q0 41 12.5 73.5t35 55t53.5 34.5t69 12q22 0 38.5 -3.5t22.5 -6.5v-99q-5 2 -15 3.5t-27 1.5q-11 0 -24 -3t-23.5 -11.5
t-17.5 -23t-7 -36.5v-64h203v67q0 41 12.5 73.5t35 55t53.5 34.5t69 12q22 0 38.5 -3.5t22.5 -6.5v-99q-5 2 -15 3.5t-27 1.5z" />
    <glyph glyph-name="uniFEFF" unicode="&#xfeff;" horiz-adv-x="0" 
 />
    <glyph glyph-name="dieresis.narrow" horiz-adv-x="315" 
d="M19 625q0 26 17.5 44t43.5 18t43.5 -18t17.5 -44t-17.5 -43.5t-43.5 -17.5t-43.5 17.5t-17.5 43.5zM174 625q0 26 17.5 44t42.5 18q26 0 44 -18t18 -44t-18 -43.5t-44 -17.5q-25 0 -42.5 17.5t-17.5 43.5z" />
    <glyph glyph-name="dieresis.uc.narrow" horiz-adv-x="334" 
d="M20 821q0 26 17.5 44t43.5 18t44.5 -18t18.5 -44t-18.5 -44t-44.5 -18t-43.5 18t-17.5 44zM190 821q0 26 18 44t44 18t44 -18t18 -44t-18 -44t-44 -18t-44 18t-18 44z" />
    <glyph glyph-name="grave.uc" horiz-adv-x="283" 
d="M13 883h148l103 -124h-108z" />
    <glyph glyph-name="dieresis.uc" horiz-adv-x="427" 
d="M24 821q0 28 19 47.5t47 19.5q29 0 48 -19.5t19 -47.5t-19 -47t-48 -19q-28 0 -47 19t-19 47zM271 821q0 28 18.5 47.5t46.5 19.5q29 0 48 -19.5t19 -47.5t-19 -47t-48 -19q-28 0 -46.5 19t-18.5 47z" />
    <glyph glyph-name="macron.uc" horiz-adv-x="340" 
d="M20 776v93h300v-93h-300z" />
    <glyph glyph-name="acute.uc" horiz-adv-x="283" 
d="M128 759h-109l102 124h149z" />
    <glyph glyph-name="circumflex.uc" horiz-adv-x="408" 
d="M24 759l116 124h129l119 -124h-110l-75 64l-72 -64h-107z" />
    <glyph glyph-name="caron.uc" horiz-adv-x="408" 
d="M133 883l72 -65l75 65h108l-119 -124h-129l-116 124h109z" />
    <glyph glyph-name="breve.uc" horiz-adv-x="369" 
d="M185 754q-39 0 -68.5 11.5t-49.5 30t-31 42.5t-12 48h93q2 -19 17.5 -36.5t50.5 -17.5t50.5 17.5t16.5 36.5h93q-1 -24 -11.5 -48t-30.5 -42.5t-49.5 -30t-68.5 -11.5z" />
    <glyph glyph-name="dotaccent.uc" horiz-adv-x="186" 
d="M20 826q0 31 21.5 52t51.5 21t51.5 -21t21.5 -52q0 -29 -21.5 -50t-51.5 -21t-51.5 21t-21.5 50z" />
    <glyph glyph-name="ring.uc" horiz-adv-x="285" 
d="M265 860q0 -26 -10 -47.5t-27 -37.5t-39 -25t-47 -9q-24 0 -46.5 9t-39 25t-26.5 37.5t-10 47.5q0 25 10 47t26.5 38t39 25t46.5 9q25 0 47 -9t39 -25t27 -38t10 -47zM189 860q0 21 -13.5 34t-33.5 13t-33.5 -13t-13.5 -34t13.5 -34t33.5 -13t33.5 13t13.5 34z" />
    <glyph glyph-name="tilde.uc" horiz-adv-x="372" 
d="M353 863q0 -55 -28.5 -82.5t-70.5 -27.5q-22 0 -40 7t-33 16l-10 7q-12 8 -23 12.5t-22 4.5t-20.5 -8t-9.5 -25v-10h-75v22q0 56 29 83t71 27q22 0 40.5 -7t33.5 -16l10 -6q12 -7 22.5 -12t20.5 -5q13 0 22 7.5t9 25.5v10h74v-23z" />
    <glyph glyph-name="hungarumlaut.uc" horiz-adv-x="376" 
d="M99 759h-79l56 124h118zM249 759h-80l69 124h118z" />
    <glyph glyph-name="caron.alt.uc" horiz-adv-x="208" 
d="M115 509h-85l31 200h126z" />
    <glyph glyph-name="undercommaaccent" horiz-adv-x="181" 
d="M20 -96q0 25 19.5 42t47.5 17t51 -20.5t23 -60.5q0 -34 -12.5 -57t-31 -37t-41.5 -20t-44 -6v44q32 0 51.5 14.5t21.5 33.5q-2 -2 -8.5 -4.5t-16.5 -2.5q-27 0 -43.5 15.5t-16.5 41.5z" />
    </font>
</defs>
</svg>
